<?xml version="1.0" standalone="no"?>
<!DOCTYPE svg PUBLIC "-//W3C//DTD SVG 20010904//EN"
 "http://www.w3.org/TR/2001/REC-SVG-20010904/DTD/svg10.dtd">
<svg version="1.0" xmlns="http://www.w3.org/2000/svg"
 width="480.000000pt" height="480.000000pt" viewBox="0 0 480.000000 480.000000"
 preserveAspectRatio="xMidYMid meet">
<metadata>
Created by potrace 1.11, written by Peter Selinger 2001-2013
</metadata>
<g transform="translate(0.000000,480.000000) scale(0.100000,-0.100000)"
fill="#000000" stroke="none">
<path d="M525 4790 c3 -5 13 -10 21 -10 8 0 14 5 14 10 0 6 -9 10 -21 10 -11
0 -17 -4 -14 -10z"/>
<path d="M604 4785 c24 -18 39 -20 34 -2 -3 6 -15 13 -29 15 -23 2 -23 2 -5
-13z"/>
<path d="M662 4786 c9 -9 22 -16 28 -16 7 0 9 -8 4 -22 -7 -23 -6 -23 15 -4
27 24 27 33 -1 41 -67 19 -64 19 -46 1z"/>
<path d="M805 4791 c3 -5 1 -12 -5 -16 -18 -11 -11 -26 8 -17 9 5 23 7 31 4 9
-3 11 0 6 8 -4 7 -2 16 6 21 10 6 4 9 -19 9 -18 0 -31 -4 -27 -9z"/>
<path d="M910 4784 c-16 -9 -26 -10 -29 -3 -2 6 -9 -2 -17 -16 -15 -28 -11
-45 9 -45 7 0 13 -11 13 -25 1 -14 -2 -25 -7 -25 -5 0 -9 5 -9 11 0 8 -4 8
-13 0 -15 -12 -37 3 -37 26 0 15 -48 48 -57 40 -3 -4 0 -13 6 -21 10 -12 9
-17 -7 -25 -17 -9 -18 -7 -14 14 3 20 1 23 -17 18 -12 -3 -21 -10 -21 -15 0
-6 -9 -8 -19 -5 -10 2 -24 1 -31 -3 -19 -12 -2 -30 26 -30 16 0 23 4 18 11 -4
7 -1 10 7 7 8 -3 13 -13 12 -22 -1 -12 4 -15 14 -11 13 4 14 3 3 -10 -7 -8
-16 -12 -21 -9 -5 3 -9 -2 -9 -11 0 -9 -12 -18 -31 -22 -40 -8 -47 -28 -19
-59 27 -28 42 -30 64 -8 9 8 20 12 26 9 5 -3 10 1 10 9 0 9 9 16 20 16 11 0
20 5 20 10 0 16 24 11 41 -8 8 -10 14 -23 12 -29 -5 -14 24 -43 43 -43 8 0 14
-6 14 -14 0 -8 11 -17 24 -20 15 -4 26 -16 30 -32 7 -25 8 -25 20 -8 13 17 15
17 40 1 21 -14 26 -15 26 -3 0 8 8 22 17 32 16 16 16 18 -5 32 -27 17 -28 36
-4 54 9 7 18 18 19 23 1 6 4 17 8 26 5 13 1 15 -19 12 -31 -6 -35 12 -6 27 24
13 26 30 3 30 -15 0 -14 2 2 20 9 10 29 19 44 18 14 0 42 2 61 6 19 3 29 4 23
0 -7 -3 -13 -14 -13 -25 0 -17 3 -18 21 -7 17 11 22 10 33 -4 14 -19 42 -26
31 -8 -3 6 1 10 10 10 8 0 23 5 33 11 25 16 78 -16 61 -37 -8 -10 -5 -16 10
-26 12 -7 21 -16 21 -20 0 -3 -29 -16 -64 -28 -50 -16 -70 -19 -85 -11 -27 15
-31 14 -31 -7 0 -10 13 -25 29 -35 37 -22 41 -21 41 3 0 19 3 20 93 36 9 1 17
-2 17 -8 0 -7 6 -4 13 5 12 17 102 49 111 40 2 -2 0 -18 -5 -36 -5 -17 -7 -33
-4 -35 3 -3 0 -11 -7 -19 -6 -7 -12 -41 -13 -75 -2 -43 -8 -65 -19 -73 -20
-15 -20 -20 0 -39 8 -9 31 -16 49 -16 32 0 34 2 26 23 -5 12 -14 21 -20 19 -6
-1 -11 2 -11 7 0 12 30 22 42 14 7 -3 8 -1 4 5 -5 8 0 12 13 12 12 0 21 -5 21
-11 0 -6 7 -4 15 5 8 8 15 19 15 25 0 6 -7 8 -15 5 -23 -9 -18 10 10 36 28 26
33 42 10 34 -8 -4 -15 -1 -15 6 0 7 -7 10 -16 6 -8 -3 -26 -3 -40 0 -19 5 -24
13 -24 38 0 62 11 61 106 -12 143 -112 154 -128 125 -180 -11 -21 -10 -26 8
-39 24 -16 26 -29 9 -47 -17 -16 -67 -16 -61 0 3 7 11 10 19 7 12 -5 14 3 11
38 -2 27 -9 45 -18 47 -15 3 -39 46 -39 71 -1 13 -4 12 -16 -4 -8 -11 -17 -19
-19 -17 -13 6 -25 0 -25 -13 0 -9 9 -15 23 -15 12 0 28 -9 35 -20 7 -12 18
-18 25 -15 7 4 1 -2 -12 -13 -19 -15 -21 -20 -8 -25 8 -3 19 -1 24 4 7 7 12 5
16 -5 5 -11 -3 -18 -26 -25 -18 -5 -24 -10 -14 -10 10 -1 15 -6 12 -11 -3 -6
5 -14 19 -20 14 -5 26 -14 26 -20 0 -5 7 -10 15 -10 9 0 15 -10 15 -26 0 -14
-4 -23 -10 -19 -5 3 -10 -3 -10 -14 0 -26 17 -36 35 -21 13 11 15 7 15 -20 0
-27 2 -31 15 -20 8 6 19 9 25 5 5 -3 10 -2 10 2 0 5 10 10 22 10 13 1 24 7 26
13 2 5 9 10 15 10 20 0 161 -74 180 -94 24 -27 20 -97 -6 -104 -11 -3 -16 -10
-13 -19 3 -8 6 -16 6 -18 0 -2 21 -13 46 -26 45 -21 46 -23 41 -61 -3 -22 -15
-50 -27 -63 -11 -12 -20 -26 -19 -31 4 -22 -3 -23 -27 -8 -23 15 -27 16 -41 2
-20 -21 -10 -50 30 -89 23 -22 39 -29 60 -26 26 3 33 -8 29 -45 -1 -3 5 -12
13 -18 19 -16 19 -40 0 -40 -8 0 -14 -3 -14 -7 3 -21 -6 -20 -71 7 -113 47
-220 80 -256 80 -21 0 -40 -8 -52 -21 -25 -26 -57 -127 -82 -256 -11 -55 -24
-113 -31 -129 -6 -16 -13 -42 -15 -59 -2 -16 -15 -102 -29 -190 -13 -88 -27
-196 -30 -240 -3 -44 -10 -109 -15 -145 -5 -36 -12 -96 -15 -133 l-7 -69 -56
-26 c-91 -41 -204 -167 -296 -327 -16 -27 -36 -58 -44 -67 -17 -20 -39 -13
-22 7 7 8 7 16 2 19 -6 3 -13 -2 -16 -11 -6 -15 -8 -15 -16 -3 -13 20 5 38 35
34 16 -1 25 3 25 12 0 8 -4 14 -10 14 -5 0 -10 6 -10 14 0 8 -9 14 -19 13 -16
-1 -18 -5 -9 -22 6 -11 7 -17 3 -13 -8 8 -35 -15 -35 -30 0 -5 -10 -8 -21 -8
-12 1 -24 -5 -26 -11 -3 -7 2 -13 11 -13 9 0 16 -4 16 -10 0 -5 -6 -10 -14
-10 -8 0 -16 -6 -19 -14 -6 -14 -52 -11 -73 5 -12 10 -74 -11 -74 -24 0 -5
-11 -6 -24 -3 -27 7 -46 -21 -24 -36 38 -26 49 -28 68 -18 11 6 24 9 29 6 5
-3 14 1 21 9 7 8 19 15 26 15 8 0 14 4 14 8 0 10 70 36 77 29 10 -11 -9 -28
-25 -23 -10 3 -26 -2 -37 -10 -17 -12 -18 -16 -5 -24 8 -5 17 -5 20 -1 8 13
54 21 69 12 11 -7 5 -26 -31 -92 -61 -114 -101 -216 -94 -244 24 -96 235 -208
433 -229 28 -3 59 -17 92 -43 28 -20 51 -41 51 -44 0 -4 -14 -18 -31 -30 l-31
-22 36 -22 c51 -31 50 -29 21 -73 -15 -23 -25 -49 -22 -59 4 -14 5 -13 6 5 1
13 28 51 65 90 46 50 65 78 70 107 9 48 -5 265 -29 450 -2 17 -6 53 -10 80 -3
28 -8 60 -11 73 -4 19 7 30 70 71 286 187 636 302 956 317 197 8 522 -9 552
-30 12 -9 17 -16 10 -16 -25 0 -11 -19 38 -50 28 -18 50 -33 50 -35 0 -2 -10
-1 -22 2 -18 3 -14 -4 22 -39 25 -24 52 -52 60 -62 14 -18 14 -19 -7 -7 -30
16 -29 9 8 -41 16 -24 26 -44 20 -46 -5 -2 8 -40 29 -85 46 -97 66 -168 82
-295 l11 -92 21 19 c76 69 164 48 182 -44 11 -62 -28 -154 -86 -203 -26 -22
-103 -72 -112 -72 -4 0 -8 13 -8 30 0 24 6 32 33 43 60 25 77 99 24 105 -26 3
-26 4 -13 30 20 38 68 81 102 92 27 8 27 8 5 9 -30 1 -86 -41 -112 -83 -26
-42 -24 -54 9 -58 41 -5 37 -45 -8 -76 l-35 -24 -6 69 -5 68 -2 -85 c-3 -110
-9 -132 -36 -129 -11 2 -46 -10 -76 -27 -30 -16 -58 -30 -61 -32 -4 -2 -12 10
-18 25 l-11 28 6 -31 c5 -30 4 -31 -108 -86 -62 -30 -153 -72 -201 -93 -48
-21 -86 -39 -84 -41 5 -5 205 80 306 131 90 45 95 46 109 29 13 -18 14 -18 8
3 -4 12 -2 24 4 28 17 11 132 36 138 31 9 -10 -9 -75 -31 -107 -15 -22 -31
-34 -45 -33 -16 0 -20 -2 -12 -10 24 -24 76 37 95 111 10 39 17 50 41 57 74
24 284 108 290 117 3 5 -7 8 -23 7 -15 -1 -44 -1 -63 0 -34 2 -32 4 50 48 143
77 260 155 260 175 0 5 -15 9 -33 9 -52 0 -51 10 8 45 115 70 274 194 366 286
111 112 153 169 180 244 22 64 15 88 -36 124 -41 28 -187 91 -281 122 -38 12
-81 27 -96 32 l-28 9 28 37 c35 45 72 105 72 117 0 5 -14 -13 -31 -41 -17 -27
-43 -62 -57 -78 -26 -28 -31 -28 -92 -5 l-25 10 30 15 c55 29 105 74 131 119
15 25 24 47 22 50 -3 2 -11 -9 -18 -25 -15 -37 -97 -115 -144 -137 -30 -15
-41 -15 -80 -4 -57 16 -62 22 -71 90 -4 30 -16 93 -26 138 -11 46 -28 139 -39
206 -16 103 -49 271 -75 391 -5 26 -4 25 14 -10 23 -48 25 -39 6 40 -16 67
-12 89 5 26 7 -28 15 -39 25 -35 10 4 16 -5 21 -30 5 -30 9 -34 20 -25 8 6 14
20 14 30 0 25 8 24 33 -3 16 -18 19 -19 14 -5 -4 11 -1 25 8 33 17 18 37 10
28 -11 -3 -9 1 -15 11 -15 13 0 12 -4 -5 -21 -42 -42 -63 -108 -63 -199 0 -73
3 -93 28 -142 48 -97 138 -130 189 -68 42 49 60 111 54 177 -10 93 -14 108
-26 106 -6 -2 -12 2 -12 7 -1 6 -2 14 -3 19 0 5 -5 13 -10 18 -5 5 -6 3 -2 -4
9 -16 4 -16 -28 -2 -14 7 -23 16 -19 22 4 6 1 7 -6 3 -7 -5 -10 -10 -7 -13 3
-3 -1 -12 -9 -20 -28 -28 -18 -68 27 -109 38 -34 42 -42 42 -85 0 -54 -25 -99
-55 -99 -28 0 -87 65 -99 110 -11 40 -13 103 -4 148 9 43 65 102 98 102 36 0
89 -28 80 -42 -4 -6 -3 -8 4 -5 14 9 57 -43 81 -99 11 -24 28 -79 37 -122 15
-74 15 -82 -4 -182 -11 -58 -24 -114 -28 -125 -5 -14 -4 -17 4 -10 12 12 38
109 47 181 20 153 -51 342 -150 400 -57 33 -87 31 -133 -11 -82 -74 -81 -227
2 -318 65 -72 136 -33 136 74 0 40 -5 51 -40 87 -40 41 -48 64 -30 92 12 20
37 5 67 -40 18 -25 23 -47 23 -95 0 -187 -125 -251 -204 -104 -94 172 13 428
154 369 80 -33 165 -178 189 -326 l9 -49 1 46 c1 52 -22 140 -50 185 -22 36
-24 48 -6 38 8 -5 8 -3 -2 9 -7 9 -17 15 -21 12 -8 -5 -22 25 -19 41 4 23 -2
35 -13 28 -7 -4 -10 -4 -6 1 14 15 68 14 68 -1 0 -9 11 -14 30 -14 20 0 30 5
30 15 0 8 5 15 10 15 6 0 10 -5 10 -11 0 -5 4 -8 8 -5 5 3 26 0 47 -5 35 -10
40 -9 58 13 13 16 17 18 13 6 -3 -12 0 -18 10 -18 22 0 43 -23 41 -46 -2 -15
6 -20 31 -22 17 -2 32 -7 32 -13 0 -5 -4 -9 -10 -9 -5 0 -10 -3 -10 -7 0 -12
54 -12 68 -1 9 8 16 8 24 0 7 -7 20 -12 30 -12 10 0 18 -5 18 -12 0 -9 3 -9
12 0 7 7 23 12 38 12 24 0 66 19 45 20 -5 0 -2 7 9 15 23 17 13 35 -20 35 -15
0 -24 6 -24 16 0 11 8 15 28 12 26 -3 27 -1 30 50 2 31 -2 60 -9 68 -8 10 -8
14 0 14 8 0 11 89 11 317 0 287 -2 318 -17 337 -17 20 -17 20 0 7 14 -11 17
-11 16 0 0 8 -4 23 -8 34 -5 11 -3 27 3 37 13 21 4 31 -29 31 -18 0 -25 5 -25
18 0 11 6 19 13 19 7 0 13 8 14 18 1 15 -4 18 -23 14 -13 -2 -35 3 -49 12 -26
17 -33 36 -15 36 21 0 36 24 32 48 -3 15 -1 22 5 19 5 -3 17 3 26 14 9 10 26
19 37 19 16 0 20 7 20 33 0 21 -3 28 -9 19 -7 -11 -9 -10 -15 3 -3 9 -11 13
-17 9 -7 -4 -9 0 -5 12 4 13 -1 23 -14 32 -22 14 -27 3 -7 -18 10 -12 9 -12
-4 -2 -10 7 -20 29 -24 50 -4 20 -9 40 -12 45 -8 13 -33 -14 -33 -37 0 -17 -2
-18 -10 -6 -8 13 -10 13 -10 -1 0 -9 11 -21 25 -27 34 -16 42 -40 19 -57 -11
-8 -14 -15 -7 -15 7 0 17 -9 23 -21 15 -27 -5 -52 -35 -45 -14 4 -25 -1 -34
-15 -7 -13 -8 -18 -1 -14 11 7 40 -11 40 -26 0 -4 -7 -15 -16 -23 -20 -21 -64
-21 -64 -1 0 8 5 15 10 15 6 0 10 4 10 10 0 5 -5 9 -12 7 -6 -1 -14 6 -16 15
-2 13 1 16 12 12 11 -4 16 0 16 12 0 9 3 14 7 11 4 -4 14 10 24 30 17 37 12
73 -11 73 -6 0 -10 7 -10 15 0 8 -16 21 -35 29 -22 10 -37 24 -41 40 -3 14
-12 26 -19 26 -7 0 -15 7 -19 15 -3 8 -10 15 -16 15 -6 0 -3 -11 6 -25 15 -23
11 -51 -6 -40 -5 3 -11 1 -14 -4 -4 -5 -2 -12 3 -16 6 -3 8 -12 4 -20 -4 -11
-1 -13 11 -9 9 3 16 1 16 -5 0 -6 -4 -11 -9 -11 -5 0 -8 -8 -7 -17 1 -12 -7
-19 -24 -21 -47 -6 -54 -10 -39 -28 10 -13 10 -17 -1 -24 -8 -5 -11 -13 -6
-17 5 -4 11 -2 13 5 6 17 23 15 23 -3 0 -18 37 -20 42 -3 3 9 9 8 21 -4 20
-19 22 -35 5 -40 -7 -3 -8 -10 -4 -17 7 -11 10 -11 17 0 5 9 10 5 14 -13 4
-15 13 -29 21 -32 21 -8 17 -29 -3 -22 -12 4 -9 -1 7 -15 18 -15 20 -19 7 -15
-10 3 -23 6 -28 6 -5 0 -9 12 -9 27 0 21 -3 24 -12 15 -9 -9 -17 -7 -36 11
l-24 22 6 -22 c3 -13 8 -32 11 -42 4 -14 -2 -21 -26 -30 -37 -13 -50 -7 -43
17 5 14 4 15 -5 2 -9 -13 -14 -11 -35 11 -14 15 -22 30 -19 33 4 3 -3 6 -15 6
-12 0 -22 -4 -22 -10 0 -5 -7 -10 -16 -10 -9 0 -14 -6 -11 -12 6 -18 -12 -50
-24 -43 -5 4 -9 1 -9 -5 0 -7 6 -10 12 -7 7 2 18 -3 24 -11 9 -12 12 -12 23 2
11 14 11 16 -4 16 -14 0 -15 3 -5 15 15 18 42 2 34 -20 -4 -10 0 -12 15 -8 12
3 21 9 21 14 0 15 22 10 36 -8 7 -10 14 -28 14 -39 0 -29 25 -76 35 -66 4 4 4
-3 1 -15 -6 -19 -3 -23 13 -23 11 0 27 7 36 16 13 13 18 14 31 3 14 -12 14
-14 -3 -20 -11 -4 3 -9 40 -13 64 -8 79 -32 27 -43 -34 -6 -38 -17 -12 -33 16
-11 16 -11 -1 -6 -10 3 -22 6 -27 6 -4 0 -10 9 -13 20 -5 21 -27 28 -27 9 0
-6 -9 -8 -20 -4 -13 4 -20 2 -20 -6 0 -10 -3 -10 -11 -2 -6 6 -18 9 -25 6 -24
-9 -15 13 11 27 14 7 25 17 25 21 0 13 -44 18 -57 7 -10 -8 -17 -8 -25 0 -7 7
-8 12 -4 12 5 0 4 6 -2 13 -7 8 -25 11 -47 9 -34 -4 -36 -6 -30 -30 3 -14 15
-33 26 -43 23 -20 25 -39 4 -39 -14 0 -13 -3 2 -25 18 -24 53 -34 53 -15 0 6
7 10 15 10 8 0 15 5 15 11 0 8 5 8 15 -1 12 -10 15 -10 15 0 0 7 7 10 15 6 10
-3 15 1 15 11 0 24 14 6 18 -23 1 -15 -1 -23 -7 -20 -5 4 -24 8 -41 10 -25 3
-30 0 -25 -12 3 -8 -1 -25 -10 -38 -14 -22 -14 -23 2 -17 16 6 16 5 4 -11 -8
-9 -21 -14 -29 -11 -10 3 -12 0 -8 -10 3 -8 1 -15 -4 -15 -6 0 -10 7 -10 15 0
19 -7 19 -26 0 -8 -8 -21 -12 -29 -9 -10 4 -12 0 -8 -15 3 -12 10 -21 15 -21
5 0 7 -9 3 -19 -3 -11 1 -26 10 -35 15 -15 15 -16 0 -16 -8 0 -18 7 -21 15 -8
20 -29 -1 -31 -32 -1 -18 5 -27 19 -31 11 -2 17 -10 14 -18 -6 -16 13 -31 23
-17 7 12 41 25 41 16 0 -3 -8 -12 -17 -20 -16 -13 -16 -14 7 -8 20 5 22 4 8
-5 -11 -7 -25 -7 -43 0 -37 14 -55 13 -49 -4 3 -8 -3 -17 -14 -20 -11 -4 -23
-13 -26 -21 -3 -8 -15 -15 -26 -15 -13 0 -20 -7 -20 -20 0 -11 -3 -20 -7 -20
-5 0 -17 -7 -28 -15 -18 -15 -18 -16 15 -43 38 -32 34 -52 -11 -52 -22 0 -29
-5 -29 -20 0 -24 -26 -38 -42 -22 -6 6 -17 8 -24 5 -8 -3 -22 1 -31 8 -13 11
-17 11 -21 1 -6 -18 -73 -45 -85 -33 -5 5 4 17 22 30 27 20 29 25 26 72 -3 44
-1 52 16 56 10 3 19 12 19 20 0 12 7 14 30 10 34 -7 38 2 12 26 -21 19 -37 22
-26 5 4 -7 3 -8 -4 -4 -19 12 -14 36 7 36 13 0 21 8 23 23 2 12 9 21 16 19 6
-1 12 5 12 13 0 8 9 15 20 15 11 0 20 7 20 15 0 18 21 20 38 3 9 -9 16 -7 32
7 11 10 20 24 20 32 0 7 5 13 10 13 6 0 -1 12 -15 27 -24 26 -34 56 -17 51 7
-2 82 69 82 78 0 2 -7 4 -16 4 -9 0 -12 5 -8 13 10 16 -27 -13 -43 -34 -7 -9
-26 -16 -44 -17 -21 0 -39 -9 -53 -26 -19 -23 -29 -25 -80 -17 -4 0 -6 10 -3
20 3 12 -1 22 -10 25 -7 3 -13 14 -11 23 2 12 -2 17 -12 14 -8 -2 -27 -4 -42
-4 l-27 0 25 -31 c13 -17 29 -37 36 -45 13 -16 -5 -31 -42 -31 -33 0 -56 -15
-41 -25 9 -5 9 -10 0 -22 -11 -12 -9 -13 13 -8 20 5 27 3 31 -12 4 -16 5 -16
6 0 1 18 36 24 46 7 3 -6 -4 -10 -16 -10 -21 0 -21 -1 -5 -19 14 -16 15 -19 2
-24 -8 -3 -17 -3 -20 0 -3 4 -17 7 -31 9 -13 1 -42 21 -64 43 -22 23 -46 42
-53 42 -7 1 -19 2 -26 3 -17 1 -31 26 -25 42 2 7 11 10 19 7 18 -6 18 11 1 25
-18 15 -37 0 -43 -34 -3 -16 -10 -31 -15 -33 -6 -1 -4 -8 4 -15 22 -17 30 -86
11 -93 -9 -3 -20 -1 -26 5 -6 6 -30 8 -58 5 -38 -4 -48 -2 -53 12 -9 21 -1 35
19 35 8 0 14 5 14 11 0 6 -9 9 -20 6 -11 -3 -20 -1 -20 4 0 5 -7 9 -15 9 -18
0 -36 32 -26 48 4 7 15 10 24 6 13 -5 17 -1 17 16 0 12 4 18 11 15 5 -4 21 -8
35 -10 18 -2 24 1 20 12 -3 8 -6 17 -6 19 0 2 -8 4 -18 4 -28 0 -31 8 -15 41
17 34 37 39 29 7 -3 -13 -3 -17 0 -10 8 18 24 15 24 -5 1 -17 1 -17 14 0 7 9
18 17 25 17 6 0 11 5 11 11 0 7 11 8 31 4 22 -5 29 -4 25 4 -4 6 -14 11 -22
11 -13 0 -17 10 -11 28 1 4 5 6 10 4 14 -4 7 19 -8 24 -8 4 -15 12 -15 20 0 8
-6 11 -15 8 -26 -10 -38 6 -19 27 14 16 15 21 3 36 -13 15 -12 16 8 11 30 -8
38 7 19 34 -20 28 -20 38 -2 38 8 0 16 7 20 15 3 8 15 15 26 15 17 0 20 -4 15
-20 -3 -11 -2 -20 4 -20 5 0 17 -3 25 -6 12 -5 16 -1 14 17 -2 17 3 24 22 29
15 3 26 15 30 30 4 16 14 26 29 28 13 2 21 0 17 -6 -3 -5 2 -13 11 -16 9 -4
20 -1 24 6 6 10 11 10 20 1 9 -9 18 -8 37 5 14 9 33 17 41 17 9 0 14 6 12 15
-2 8 -4 23 -5 33 0 22 -2 21 -28 -3 -25 -23 -60 -27 -52 -6 3 8 -3 16 -15 19
-12 3 -21 12 -21 20 0 8 -9 17 -20 20 -27 7 -27 47 -1 47 11 0 23 -9 26 -20 3
-11 13 -20 21 -20 12 0 14 7 9 28 -7 36 9 82 30 82 13 0 14 4 5 20 -6 12 -21
20 -35 20 -26 0 -34 15 -13 23 14 4 18 67 6 67 -5 0 -8 -5 -8 -11 0 -7 -11 -9
-30 -6 -28 6 -60 -11 -60 -32 0 -5 -13 -11 -28 -14 -15 -3 -40 -18 -54 -32
-26 -25 -27 -26 -52 -10 -30 20 -34 11 -8 -18 16 -19 16 -19 -5 -13 -26 8 -39
-9 -22 -30 18 -22 -2 -39 -35 -28 -14 5 -25 14 -23 19 1 6 5 9 10 7 4 -1 7 3
7 9 0 6 -8 8 -18 5 -13 -5 -21 2 -29 25 l-12 31 -34 -21 c-38 -23 -57 -27 -57
-11 0 12 49 34 68 31 6 -1 12 3 12 9 0 5 -9 10 -21 10 -11 0 -17 5 -14 10 3 6
-3 10 -14 10 -12 0 -21 -7 -21 -15 0 -20 -10 -19 -26 2 -7 10 -16 14 -20 10
-5 -4 -2 -12 6 -17 24 -15 6 -11 -29 6 -18 9 -35 13 -38 10 -9 -8 18 -37 28
-30 5 3 9 -2 9 -11 0 -9 -4 -14 -9 -11 -4 3 -16 -3 -25 -13 -14 -16 -15 -20
-2 -30 11 -10 16 -9 24 5 8 15 13 13 42 -15 31 -29 32 -31 11 -31 -13 0 -34
-8 -47 -19 l-24 -19 29 2 c16 1 33 5 37 9 13 13 54 7 60 -8 4 -8 12 -15 20
-15 7 0 18 -8 24 -17 9 -15 10 -13 5 10 -4 20 -2 27 10 27 8 0 15 -6 15 -14 0
-8 7 -22 17 -31 14 -14 14 -18 2 -26 -8 -5 -19 -9 -26 -9 -8 0 -10 -7 -6 -17
5 -14 4 -16 -8 -7 -18 13 -61 16 -54 3 4 -5 15 -9 25 -9 10 0 22 -9 25 -20 5
-16 12 -19 27 -14 15 4 19 2 15 -7 -2 -8 -10 -13 -16 -11 -7 1 -11 -3 -9 -10
1 -7 -3 -23 -10 -35 -10 -19 -21 -23 -57 -23 -24 0 -46 4 -49 9 -3 5 -18 9
-33 9 -24 0 -25 -2 -10 -13 27 -20 20 -27 -26 -24 -24 2 -49 -1 -56 -5 -16
-10 -51 21 -51 45 0 9 6 20 13 22 9 4 9 8 -2 15 -19 14 -3 19 51 18 46 -1 47
-1 30 19 -9 11 -17 21 -18 23 -5 11 -59 10 -76 -2 -15 -11 -27 -12 -45 -5 -26
10 -43 5 -43 -12 0 -6 5 -7 10 -4 6 3 10 1 10 -5 0 -6 -11 -15 -25 -20 -30
-11 -30 -13 -8 -36 16 -15 16 -17 -3 -30 -36 -25 -44 -35 -43 -52 0 -12 3 -10
10 7 6 15 15 21 24 17 10 -3 15 1 15 12 1 14 3 14 19 -5 10 -12 21 -19 25 -16
3 3 8 -2 12 -11 3 -9 13 -16 22 -16 13 0 12 -3 -4 -15 -26 -20 -33 -19 -27 5
4 16 0 20 -19 20 -21 0 -25 -5 -26 -35 -2 -44 -8 -55 -31 -55 -10 0 -21 -9
-24 -20 -4 -16 -9 -18 -36 -10 -17 4 -30 5 -29 2 1 -4 -2 -14 -5 -22 -3 -8 -7
-26 -9 -40 -4 -29 -42 -39 -71 -18 -17 13 -17 15 7 43 26 30 28 44 4 29 -19
-12 -49 -5 -67 17 -15 18 -18 18 -45 4 -35 -18 -36 -18 -36 -1 0 23 40 66 61
66 11 0 28 -7 37 -16 14 -15 17 -15 27 0 7 9 15 13 18 9 9 -8 9 10 1 31 -3 9
-15 16 -25 16 -21 0 -25 20 -7 38 9 9 7 12 -10 12 -33 0 -28 34 12 74 31 32
37 34 66 26 40 -11 50 -7 43 20 -3 12 0 20 6 20 7 0 10 4 7 9 -9 14 -75 19
-69 5 9 -24 -22 -34 -67 -20 -40 12 -45 17 -42 40 1 14 -2 26 -8 26 -10 0 -14
-13 -11 -36 2 -19 -31 -12 -37 8 -2 10 -9 18 -14 18 -13 0 1 63 16 72 6 5 -3
5 -20 2 -21 -4 -34 -1 -43 10 -11 13 -17 14 -27 5 -12 -9 -14 -7 -12 12 2 15
-3 24 -14 27 -11 2 -18 -3 -18 -12 0 -9 -8 -16 -18 -16 -26 0 -33 -10 -21 -32
7 -13 17 -17 29 -13 17 5 18 3 10 -23 -5 -19 -4 -34 3 -41 13 -13 -10 -44 -29
-37 -9 3 -9 -2 2 -22 13 -25 12 -28 -13 -47 -31 -23 -69 -29 -79 -13 -4 6 1
15 10 20 23 13 20 31 -9 45 -24 11 -46 1 -25 -12 22 -14 10 -34 -20 -32 -32 2
-49 24 -25 33 24 9 17 24 -10 24 -22 0 -25 -3 -20 -29 4 -26 3 -28 -20 -23
-28 5 -44 22 -21 22 8 0 17 13 21 31 5 20 12 29 20 25 9 -3 12 0 8 10 -7 19 6
18 29 -3 16 -14 21 -15 27 -4 5 8 13 11 19 7 6 -3 14 -2 17 4 5 8 11 7 21 -1
17 -14 27 -8 19 12 -3 9 -23 15 -52 16 -44 2 -63 13 -63 41 0 6 9 12 20 12 11
0 20 6 20 14 0 7 14 16 31 20 l32 6 -7 56 c-6 49 -4 55 9 50 10 -3 14 -2 10 5
-4 6 -14 8 -22 5 -16 -7 -53 10 -53 24 0 4 13 11 29 15 29 6 35 15 51 68 10
31 10 31 -54 12 -46 -14 -73 -12 -50 3 13 9 44 54 44 64 0 4 -10 12 -22 18
-20 10 -21 9 -6 -2 15 -13 15 -16 -4 -38 -13 -16 -18 -19 -14 -8 3 10 2 17 -2
15 -4 -1 -28 16 -54 37 -32 27 -48 49 -53 72 -7 39 -47 74 -84 74 -26 0 -71
-31 -71 -49 0 -4 -35 -7 -77 -7 -114 -1 -221 -39 -294 -106 -42 -38 -79 -95
-79 -120 0 -25 -17 -22 -31 4 -8 14 -8 23 -2 25 6 2 18 9 28 16 16 12 16 16 1
51 -27 65 -22 82 29 96 50 14 63 26 46 43 -21 21 -11 30 30 23 40 -6 41 -6 37
19 -3 14 -1 28 3 31 5 3 9 15 9 27 0 16 -6 23 -19 23 -16 0 -19 -7 -16 -43 3
-47 -8 -56 -26 -22 -8 15 -8 19 0 15 6 -4 11 0 11 11 0 36 -34 44 -176 42
-164 -1 -172 -3 -166 -35 5 -28 14 -30 37 -8 15 16 18 16 36 -3 20 -19 20 -19
-6 -47 -30 -33 -31 -36 -4 -36 11 0 28 -7 36 -16 15 -14 14 -17 -4 -35 -19
-19 -20 -19 -34 -3 -12 16 -12 17 1 9 9 -5 8 0 -4 14 -13 15 -22 18 -27 10 -4
-6 -12 -8 -18 -5 -6 4 -9 11 -6 16 10 16 -29 50 -57 50 -22 0 -28 5 -28 21 0
11 5 17 10 14 6 -3 10 -2 10 3 0 13 -28 23 -32 13 -2 -5 -18 -6 -35 -4 -24 4
-33 11 -33 24 0 18 -13 19 -287 18 -223 -1 -294 -4 -313 -15z m410 -54 c0 -3
-5 -12 -11 -20 -8 -11 -12 -12 -16 -2 -2 6 -11 12 -18 12 -14 0 -25 22 -25 51
0 18 3 17 35 -8 19 -15 35 -30 35 -33z m-330 20 c0 -5 -5 -10 -11 -10 -5 0 -7
5 -4 10 3 6 8 10 11 10 2 0 4 -4 4 -10z m-30 -31 c0 -5 -7 -9 -15 -9 -15 0
-20 12 -9 23 8 8 24 -1 24 -14z m540 -90 c0 -5 -15 -9 -32 -9 l-33 0 25 14
c26 13 40 12 40 -5z m797 8 c0 -8 -5 -14 -11 -14 -6 0 -22 -3 -35 -7 -13 -5
-21 -4 -18 0 3 5 -6 10 -20 11 -15 0 -21 -2 -15 -6 7 -4 6 -12 -3 -24 -8 -12
-15 -14 -20 -7 -3 5 -11 7 -17 4 -6 -4 -5 -10 3 -15 11 -7 10 -9 -5 -9 -12 0
-16 5 -12 16 3 9 6 18 6 20 0 2 7 4 15 4 9 0 12 6 8 18 -3 9 -3 14 1 11 4 -4
19 -3 34 1 44 13 89 12 89 -3z m-1307 -13 c0 -9 -7 -14 -17 -12 -25 5 -28 28
-4 28 12 0 21 -6 21 -16z m-115 -24 c-3 -5 -11 -10 -16 -10 -6 0 -7 5 -4 10 3
6 11 10 16 10 6 0 7 -4 4 -10z m1555 0 c0 -5 -8 -10 -17 -10 -15 0 -16 2 -3
10 19 12 20 12 20 0z m-1505 -20 c-3 -5 -11 -10 -16 -10 -6 0 -7 5 -4 10 3 6
11 10 16 10 6 0 7 -4 4 -10z m55 0 c0 -5 -4 -10 -10 -10 -5 0 -10 5 -10 10 0
6 5 10 10 10 6 0 10 -4 10 -10z m1587 -22 c11 -13 23 -30 26 -40 5 -14 1 -15
-26 -7 -18 5 -34 9 -36 9 -2 0 -1 7 2 14 4 11 1 13 -11 9 -14 -6 -15 -4 -5 9
7 8 10 18 6 21 -3 4 0 7 9 7 8 0 24 -10 35 -22z m-540 6 c-3 -3 -2 -16 3 -29
9 -23 -9 -53 -22 -39 -3 3 -5 -1 -4 -10 2 -26 -18 -17 -21 10 -3 18 0 24 8 18
9 -5 10 -2 6 9 -4 11 -1 17 8 17 8 0 14 3 14 8 -2 13 1 22 8 22 3 0 4 -3 0 -6z
m-1127 -24 c0 -5 -4 -10 -10 -10 -5 0 -10 5 -10 10 0 6 5 10 10 10 6 0 10 -4
10 -10z m1253 -17 c-8 -3 -11 -15 -7 -31 l5 -27 -15 25 c-14 25 -7 41 19 39 6
0 4 -3 -2 -6z m384 -49 c1 -18 0 -21 -4 -9 -3 11 -9 24 -14 29 -14 15 -39 16
-39 1 0 -8 -9 -13 -21 -12 -19 1 -19 3 7 24 25 20 31 21 49 9 11 -8 21 -26 22
-42z m-283 21 c-4 -8 -11 -15 -16 -15 -6 0 -5 6 2 15 7 8 14 15 16 15 2 0 1
-7 -2 -15z m-65 -9 c9 -10 8 -15 -4 -20 -10 -4 -15 1 -15 14 0 24 4 25 19 6z
m-636 -21 c-3 -8 -9 -15 -14 -15 -10 0 -12 24 -3 33 11 11 24 -3 17 -18z
m1159 8 c-6 -2 -9 -9 -6 -14 7 -13 -15 -41 -27 -33 -5 3 -9 0 -9 -5 0 -17 -37
-13 -44 5 -8 20 -8 39 0 31 3 -3 22 1 42 8 34 13 73 20 44 8z m-652 -6 c0 -2
-15 -13 -32 -26 l-33 -22 28 25 c26 24 37 31 37 23z m75 -17 c3 -5 1 -10 -4
-10 -6 0 -11 5 -11 10 0 6 2 10 4 10 3 0 8 -4 11 -10z m195 -35 c0 -30 -4 -35
-22 -35 -22 -1 -23 -1 -4 -15 11 -8 17 -16 13 -16 -4 -1 -10 -2 -14 -3 -5 -1
-14 -5 -22 -10 -11 -7 -13 -3 -8 23 4 20 3 30 -3 26 -6 -3 -10 -11 -10 -16 0
-21 -30 -40 -52 -34 -17 4 -15 1 7 -11 20 -12 30 -13 33 -5 5 15 18 14 36 -5
11 -10 16 -11 16 -3 0 11 28 38 40 39 3 0 5 -18 5 -40 1 -27 -4 -41 -15 -43
-8 -3 2 -5 23 -6 49 -1 75 15 69 45 -2 12 -13 31 -23 40 -23 20 -26 9 -3 -13
21 -22 14 -57 -13 -61 -17 -3 -24 3 -29 22 -4 16 -1 32 6 41 10 12 10 15 -1
15 -8 0 0 9 16 20 39 26 72 26 80 0 4 -11 10 -18 15 -15 5 3 10 -1 13 -7 2 -8
8 -9 13 -4 5 5 4 11 -4 13 -7 3 -19 18 -28 35 l-15 29 -54 -30 c-59 -33 -65
-35 -65 -22 0 14 80 62 92 55 7 -4 8 -3 4 4 -11 18 31 15 88 -5 64 -23 109
-74 101 -113 -4 -16 -2 -38 4 -49 12 -21 -2 -40 -15 -19 -5 8 -10 4 -15 -11
-5 -12 -22 -27 -39 -32 -16 -6 -30 -14 -30 -18 0 -3 -25 -25 -55 -49 l-54 -43
-40 27 c-42 27 -61 25 -61 -6 0 -13 -9 -22 -27 -26 -16 -3 -44 -10 -64 -15
-38 -10 -143 1 -189 19 -41 16 -56 40 -41 64 7 11 15 42 18 69 3 27 8 47 11
44 3 -3 10 0 17 5 16 13 103 21 110 9 8 -13 34 13 28 28 -3 7 -9 11 -13 8 -4
-3 -19 4 -33 15 -14 11 -30 20 -36 20 -21 0 -11 28 12 34 12 3 24 6 27 7 3 1
14 8 25 15 11 8 27 14 37 14 10 0 18 4 18 9 0 6 24 12 53 14 28 2 55 4 60 5 4
1 7 -14 7 -33z m-788 -2 c-6 -3 -10 -9 -7 -13 3 -5 2 -11 -3 -14 -9 -6 -13 21
-6 43 4 12 7 12 17 1 9 -10 9 -13 -1 -17z m365 -40 c-3 -3 -11 -2 -17 2 -8 5
-7 11 2 22 12 15 13 14 16 -1 2 -10 1 -20 -1 -23z m53 -53 l-11 -25 6 25 c2
14 5 34 6 45 2 19 2 19 6 0 2 -12 -1 -32 -7 -45z m725 0 c20 -39 20 -41 -15
-29 -16 6 -30 16 -30 22 0 7 -3 23 -7 36 -5 21 -4 22 15 12 12 -6 29 -25 37
-41z m-586 -7 c23 -6 23 -7 5 -14 -26 -10 -74 -11 -74 -1 0 22 25 27 69 15z
m1550 -52 c7 -13 7 -23 -2 -34 -15 -19 -77 -33 -77 -18 0 6 12 11 26 11 22 0
25 3 20 24 -9 37 16 51 33 17z m-1649 -11 c0 -11 -6 -20 -14 -20 -9 0 -12 7
-9 20 3 11 9 20 14 20 5 0 9 -9 9 -20z m690 11 c0 -5 -9 -7 -20 -4 -11 3 -20
7 -20 9 0 2 9 4 20 4 11 0 20 -4 20 -9z m1950 -11 c0 -5 -4 -10 -10 -10 -5 0
-10 5 -10 10 0 6 5 10 10 10 6 0 10 -4 10 -10z m-150 -36 c0 -8 -6 -11 -15 -8
-8 4 -15 12 -15 20 0 8 6 11 15 8 8 -4 15 -12 15 -20z m-1660 -64 c0 -5 -5
-10 -11 -10 -5 0 -7 5 -4 10 3 6 8 10 11 10 2 0 4 -4 4 -10z m1150 -10 c0 -5
-4 -10 -9 -10 -5 0 -16 -3 -25 -6 -11 -4 -16 -1 -16 10 0 10 9 16 25 16 14 0
25 -4 25 -10z m-124 -24 c19 -20 18 -25 -8 -35 l-22 -8 22 -19 c12 -10 22 -24
22 -31 0 -21 -21 -25 -41 -7 -15 13 -19 14 -19 3 -1 -10 -5 -8 -15 5 -19 25
-19 36 0 36 13 0 14 4 5 20 -12 22 -5 44 11 35 5 -4 9 -1 9 4 0 15 19 14 36
-3z m-1479 -19 c15 -13 35 -26 44 -30 18 -6 32 -67 19 -81 -5 -5 -29 -5 -54
-2 l-46 7 17 29 c11 20 20 26 24 18 4 -7 0 -18 -9 -25 -16 -12 -16 -13 1 -8
49 14 48 12 26 49 -20 35 -44 51 -60 40 -5 -3 -9 2 -9 10 0 22 14 20 47 -7z
m-77 -35 c0 -16 -24 -32 -49 -33 -18 -1 -21 -3 -8 -6 14 -4 16 -8 6 -19 -6 -8
-17 -14 -24 -14 -18 0 -28 32 -13 42 10 6 10 8 -1 8 -20 0 -2 17 24 23 33 8
65 7 65 -1z m32 -82 c43 -11 49 -16 58 -48 11 -40 1 -58 -25 -48 -10 3 -13 11
-9 18 5 7 -5 3 -20 -10 -34 -26 -54 -28 -84 -6 -31 22 -31 86 1 107 12 8 24
11 27 7 3 -5 27 -14 52 -20z m2383 12 c-3 -3 -11 0 -18 7 -9 10 -8 11 6 5 10
-3 15 -9 12 -12z m-2177 -24 c-4 -37 -24 -43 -71 -23 -18 8 -25 14 -16 15 9 0
19 9 22 20 4 15 14 20 37 20 29 0 31 -2 28 -32z m-368 -34 c-15 -17 -30 -9
-30 17 0 17 3 18 21 9 16 -9 18 -14 9 -26z m822 18 c-7 -2 -10 -13 -6 -28 5
-19 2 -24 -12 -24 -16 0 -16 2 -4 10 12 8 12 10 -3 16 -17 6 -17 8 -1 25 9 10
21 16 27 12 8 -5 7 -8 -1 -11z m1729 -14 c22 -28 25 -45 3 -28 -17 15 -38 50
-28 50 3 0 14 -10 25 -22z m-1251 -39 c0 -11 -27 -12 -34 0 -3 4 -3 11 0 14 8
8 34 -3 34 -14z m-1235 -32 c-20 -11 -27 -5 -19 17 5 13 9 14 21 5 12 -11 12
-14 -2 -22z m1335 18 c17 -20 4 -35 -31 -35 -16 0 -29 -4 -29 -9 0 -15 32 -22
45 -11 9 8 15 8 20 0 10 -16 25 -12 25 8 0 9 8 22 18 28 13 8 21 6 36 -10 14
-14 15 -18 4 -14 -10 4 -15 1 -14 -10 0 -9 -4 -16 -10 -15 -7 1 -11 -5 -10
-15 1 -11 -5 -16 -17 -14 -20 3 -50 -16 -43 -27 8 -13 -12 -35 -36 -37 -35 -4
-78 6 -78 18 0 15 31 37 53 38 9 0 17 6 17 13 0 7 -13 12 -32 12 -17 0 -33 6
-35 13 -3 6 1 12 7 12 13 0 40 24 40 36 0 9 32 33 46 34 6 0 17 -7 24 -15z
m1198 -30 c-3 -3 -9 2 -12 12 -6 14 -5 15 5 6 7 -7 10 -15 7 -18z m-2468 1 c0
-2 -7 -6 -15 -10 -8 -3 -15 -1 -15 4 0 6 7 10 15 10 8 0 15 -2 15 -4z m303
-23 c-16 -16 -38 -40 -47 -55 -22 -33 -42 -37 -25 -5 17 33 71 87 87 87 8 0 2
-11 -15 -27z m-219 -66 c39 3 46 1 46 -14 0 -10 3 -28 6 -40 8 -28 -21 -35
-56 -14 -31 19 -40 32 -33 45 3 5 1 6 -6 2 -21 -13 -41 15 -41 58 l0 41 19
-41 c18 -40 19 -40 65 -37z m-128 26 c-4 -16 -7 -37 -7 -48 0 -29 -30 -44 -56
-27 -17 11 9 84 33 93 32 13 37 10 30 -18z m2165 -36 c-10 -9 -11 -8 -5 6 3
10 9 15 12 12 3 -3 0 -11 -7 -18z m-847 -82 c4 -11 -2 -15 -22 -14 -17 1 -20
3 -9 6 9 2 17 9 17 14 0 14 7 11 14 -6z m-996 -47 c6 -13 13 -41 16 -63 2 -22
2 -32 0 -22 -3 9 -10 15 -15 12 -5 -4 -5 -13 0 -24 7 -12 6 -26 -3 -43 -10
-20 -11 -29 -3 -37 9 -9 4 -26 -17 -66 -17 -30 -33 -52 -37 -49 -4 2 -10 0
-14 -6 -3 -5 -12 -10 -18 -10 -7 0 -6 4 3 10 11 7 3 9 -27 7 -23 -2 -42 -1
-41 2 2 23 -5 63 -9 49 -2 -10 -9 -18 -14 -18 -6 0 -8 -4 -4 -9 3 -5 0 -13 -6
-17 -8 -5 -9 -3 -5 5 5 8 3 11 -5 10 -22 -3 -50 12 -43 23 4 6 1 8 -7 6 -14
-5 -109 37 -109 48 0 3 5 2 12 -2 26 -16 54 -12 55 8 3 29 34 60 55 55 27 -7
27 16 1 37 -23 17 -23 19 -7 37 9 11 24 19 33 19 20 0 44 -37 34 -53 -4 -7 -6
-19 -5 -29 2 -9 -6 -22 -16 -30 -11 -7 -22 -23 -26 -36 -4 -12 -13 -21 -20
-20 -6 2 -11 -1 -11 -7 0 -5 8 -10 17 -9 9 0 15 -3 12 -8 -3 -4 5 -4 18 1 15
5 24 18 26 37 2 16 9 32 15 36 8 5 8 13 0 30 -9 20 -6 27 26 55 39 35 46 39
56 23 18 -30 70 9 61 46 -8 30 7 31 22 2z m-453 -8 c10 -11 16 -20 13 -20 -3
0 -13 9 -23 20 -10 11 -16 20 -13 20 3 0 13 -9 23 -20z m45 0 c13 -8 13 -10
-2 -10 -9 0 -20 5 -23 10 -8 13 5 13 25 0z m2375 0 c3 -5 -3 -10 -15 -10 -12
0 -18 5 -15 10 3 6 10 10 15 10 5 0 12 -4 15 -10z m-340 -61 c-4 -5 2 -9 12
-10 15 0 15 -2 -4 -11 -24 -11 -53 -5 -53 12 0 5 7 10 15 10 8 0 15 5 15 11 0
5 5 7 10 4 6 -4 8 -11 5 -16z m-395 -54 c0 -8 -4 -15 -10 -15 -5 0 -10 7 -10
15 0 8 5 15 10 15 6 0 10 -7 10 -15z m795 -71 c9 3 15 0 15 -9 0 -7 8 -15 18
-18 15 -4 15 -5 -2 -12 -13 -6 -21 -4 -24 3 -2 7 -21 12 -42 12 -24 0 -40 5
-43 14 -7 17 31 27 50 13 7 -5 20 -7 28 -3z m-10 -114 c-4 -17 -14 -34 -22
-37 -12 -5 -12 -7 -1 -14 9 -6 7 -9 -8 -9 -12 0 -25 7 -28 16 -3 8 -10 13 -15
9 -19 -11 -21 15 -3 35 17 19 71 42 80 34 2 -1 1 -17 -3 -34z m-1828 14 c-3
-3 -12 -4 -19 -1 -8 3 -5 6 6 6 11 1 17 -2 13 -5z m1863 -81 c0 -20 -24 -11
-28 10 -2 12 1 15 12 11 9 -3 16 -13 16 -21z m-52 -25 c19 -19 14 -29 -8 -16
-20 13 -27 28 -12 28 4 0 13 -5 20 -12z m162 2 c0 -5 -5 -10 -11 -10 -5 0 -7
5 -4 10 3 6 8 10 11 10 2 0 4 -4 4 -10z m-991 -38 c0 -24 -1 -25 -9 -7 -12 28
-12 47 0 40 6 -3 10 -18 9 -33z m51 6 c0 -18 -2 -20 -9 -8 -6 8 -7 18 -5 22 9
14 14 9 14 -14z m978 -6 c2 -8 -4 -11 -20 -8 -12 3 -31 5 -40 5 -10 1 -18 5
-18 10 0 14 73 7 78 -7z m-769 4 c-2 -2 -15 -9 -29 -15 -24 -11 -24 -11 -6 3
16 13 49 24 35 12z m714 -76 c-9 -10 -20 -17 -25 -14 -13 9 -9 24 7 24 8 0 15
5 15 11 0 5 4 8 10 4 5 -3 2 -14 -7 -25z m-533 -34 c0 -3 -4 -8 -10 -11 -5 -3
-10 -1 -10 4 0 6 5 11 10 11 6 0 10 -2 10 -4z m408 -54 c2 -12 -1 -22 -7 -22
-6 0 -11 4 -11 9 0 5 -3 17 -7 27 -4 12 -2 15 8 12 8 -2 15 -14 17 -26z m172
8 c0 -5 -4 -10 -9 -10 -6 0 -13 5 -16 10 -3 6 1 10 9 10 9 0 16 -4 16 -10z
m-2293 -186 c-3 -3 -12 -4 -19 -1 -8 3 -5 6 6 6 11 1 17 -2 13 -5z m-94 -11
c-7 -2 -21 -2 -30 0 -10 3 -4 5 12 5 17 0 24 -2 18 -5z m-126 -19 c-3 -3 -12
-4 -19 -1 -8 3 -5 6 6 6 11 1 17 -2 13 -5z m1203 -18 c0 -2 -7 -9 -15 -16 -13
-11 -14 -10 -9 4 5 14 24 23 24 12z m-215 -26 c-3 -5 -1 -10 6 -10 7 0 10 -3
6 -6 -9 -9 -28 6 -22 17 4 5 8 9 11 9 3 0 2 -4 -1 -10z m42 4 c-3 -3 -12 -4
-19 -1 -8 3 -5 6 6 6 11 1 17 -2 13 -5z m183 2 c0 -2 -8 -10 -17 -17 -16 -13
-17 -12 -4 4 13 16 21 21 21 13z m109 -32 c27 -35 26 -59 -3 -89 -19 -18 -32
-23 -62 -20 -56 5 -80 47 -54 96 12 22 30 25 30 6 0 -7 6 -22 14 -32 13 -18
15 -17 27 23 6 23 16 42 20 42 4 0 17 -12 28 -26z m-172 0 c-3 -3 -12 -4 -19
-1 -8 3 -5 6 6 6 11 1 17 -2 13 -5z m-160 -10 c-3 -3 -12 -4 -19 -1 -8 3 -5 6
6 6 11 1 17 -2 13 -5z m452 -48 c103 -70 148 -121 160 -186 30 -150 33 -171
28 -176 -3 -3 -15 -3 -27 1 -18 6 -21 12 -16 36 21 101 22 93 -9 85 -16 -4
-41 -16 -55 -26 -26 -18 -27 -18 -59 2 -30 19 -32 25 -27 57 14 77 14 76 -21
73 -30 -2 -33 0 -33 27 0 16 -7 34 -15 41 -13 11 -13 15 -3 22 8 5 9 11 3 16
-14 10 -16 72 -3 72 6 0 40 -20 77 -44z m-318 16 c26 -10 60 -33 78 -54 31
-35 31 -38 18 -70 -31 -74 -131 -117 -241 -104 -28 3 -85 9 -126 12 -95 8
-110 16 -110 57 1 39 17 69 50 95 92 71 236 99 331 64z m-367 -13 c-3 -5 -10
-7 -15 -3 -5 3 -7 10 -3 15 3 5 10 7 15 3 5 -3 7 -10 3 -15z m40 -1 c-4 -6 2
-7 17 -3 27 9 25 6 -16 -20 -25 -15 -28 -16 -16 -2 16 20 2 23 -19 5 -8 -7 -7
-4 3 8 9 11 14 24 10 28 -4 4 0 4 10 0 9 -3 14 -11 11 -16z m-1154 -8 c-12 -8
-13 -11 -1 -19 9 -6 10 -10 2 -16 -8 -4 -11 -44 -10 -117 0 -60 -3 -113 -7
-117 -5 -5 -31 -14 -59 -21 -27 -8 -87 -28 -132 -46 l-83 -32 0 38 c0 97 11
130 64 188 55 60 189 152 221 152 17 0 17 -2 5 -10z m1112 -52 c-7 -7 -12 -8
-12 -2 0 6 3 14 7 17 3 4 9 5 12 2 2 -3 -1 -11 -7 -17z m553 -8 c-3 -5 -14
-10 -23 -9 -14 0 -13 2 3 9 27 11 27 11 20 0z m-572 -34 c-3 -11 -7 -34 -7
-51 -1 -24 -6 -31 -26 -33 -48 -6 -83 47 -56 84 14 18 15 18 22 -13 3 -18 11
-33 16 -33 6 0 8 6 5 14 -3 8 1 20 9 26 8 7 14 19 14 26 0 8 6 11 15 8 11 -5
13 -13 8 -28z m514 12 c-3 -8 -6 -5 -6 6 -1 11 2 17 5 13 3 -3 4 -12 1 -19z
m23 -18 c0 -5 -5 -10 -11 -10 -5 0 -7 5 -4 10 3 6 8 10 11 10 2 0 4 -4 4 -10z
m-656 -26 c3 -8 2 -12 -4 -9 -6 3 -10 10 -10 16 0 14 7 11 14 -7z m-579 -14
c13 -5 14 -9 5 -9 -8 0 -24 4 -35 9 -13 5 -14 9 -5 9 8 0 24 -4 35 -9z m1198
-4 c4 -10 1 -13 -8 -9 -8 3 -12 9 -9 14 7 12 11 11 17 -5z m42 -6 c3 -5 1 -10
-4 -10 -6 0 -11 5 -11 10 0 6 2 10 4 10 3 0 8 -4 11 -10z m151 -13 c-3 -12
-10 -46 -16 -75 -7 -28 -16 -52 -21 -52 -12 0 -11 16 2 63 13 49 5 61 -31 42
-32 -17 -54 -42 -27 -32 30 11 47 -2 41 -32 -4 -14 -8 -27 -9 -29 -2 -2 -27 7
-57 21 -29 13 -74 32 -100 42 -27 10 -48 22 -48 26 0 23 120 23 128 0 2 -5 24
3 50 20 58 36 97 39 88 6z m-1329 -13 c-3 -3 -12 -4 -19 -1 -8 3 -5 6 6 6 11
1 17 -2 13 -5z m91 -1 c-10 -2 -28 -2 -40 0 -13 2 -5 4 17 4 22 1 32 -1 23 -4z
m-244 -12 c4 -5 -3 -7 -14 -4 -23 6 -26 13 -6 13 8 0 17 -4 20 -9z m59 2 c-7
-2 -19 -2 -25 0 -7 3 -2 5 12 5 14 0 19 -2 13 -5z m-233 -43 c-34 -11 -60 -11
-35 0 11 5 29 8 40 8 16 0 15 -2 -5 -8z m-100 -14 c0 -3 -4 -8 -10 -11 -5 -3
-10 -1 -10 4 0 6 5 11 10 11 6 0 10 -2 10 -4z m1789 -27 c21 -17 22 -22 10
-30 -18 -11 -46 -12 -53 -1 -6 10 4 52 13 52 3 -1 17 -10 30 -21z m116 -21
c-13 -45 -42 -60 -38 -20 3 26 -6 28 -33 7 -27 -21 -40 -18 -20 4 19 20 73 50
92 51 9 0 9 -11 -1 -42z m-2665 -541 c0 -17 -20 -37 -37 -37 -19 0 -16 20 5
36 22 17 32 17 32 1z"/>
<path d="M2668 4443 c6 -2 18 -2 25 0 6 3 1 5 -13 5 -14 0 -19 -2 -12 -5z"/>
<path d="M2505 4315 c4 -11 10 -28 12 -37 7 -23 18 -23 42 1 19 19 19 19 -7
16 -19 -2 -31 4 -40 19 -12 19 -13 19 -7 1z"/>
<path d="M2370 4300 c0 -5 5 -10 11 -10 5 0 7 5 4 10 -3 6 -8 10 -11 10 -2 0
-4 -4 -4 -10z"/>
<path d="M2200 4261 c0 -14 5 -18 20 -14 11 3 20 10 20 15 0 6 -7 7 -16 4 -8
-3 -12 -2 -9 4 3 6 1 10 -4 10 -6 0 -11 -9 -11 -19z"/>
<path d="M2082 4257 c-13 -15 -10 -49 5 -54 6 -2 8 6 6 20 -6 28 7 40 32 31
11 -5 15 -14 11 -28 -5 -20 -5 -21 9 -2 17 22 20 40 6 31 -5 -3 -12 -1 -16 5
-9 14 -40 13 -53 -3z"/>
<path d="M2030 4241 c0 -6 4 -13 10 -16 6 -3 7 1 4 9 -7 18 -14 21 -14 7z"/>
<path d="M2100 4234 c0 -8 5 -12 10 -9 6 4 8 11 5 16 -9 14 -15 11 -15 -7z"/>
<path d="M2206 3753 c-6 -14 -5 -15 5 -6 7 7 10 15 7 18 -3 3 -9 -2 -12 -12z"/>
<path d="M3120 2640 c0 -5 5 -10 11 -10 5 0 7 5 4 10 -3 6 -8 10 -11 10 -2 0
-4 -4 -4 -10z"/>
<path d="M3335 2608 c-11 -7 -57 -13 -103 -14 -64 -2 -91 -7 -119 -24 -20 -12
-45 -19 -55 -17 -10 3 -18 1 -18 -4 0 -15 49 -10 77 8 18 12 57 20 113 24 49
3 98 13 115 22 17 9 26 16 20 16 -5 0 -19 -5 -30 -11z"/>
<path d="M1580 4790 c8 -5 22 -10 30 -10 13 0 13 1 0 10 -8 5 -22 10 -30 10
-13 0 -13 -1 0 -10z"/>
<path d="M2183 4793 c9 -2 23 -2 30 0 6 3 -1 5 -18 5 -16 0 -22 -2 -12 -5z"/>
<path d="M2316 4791 c-4 -7 -5 -15 -2 -18 9 -9 19 4 14 18 -4 11 -6 11 -12 0z"/>
<path d="M2370 4792 c0 -20 18 -22 51 -7 27 11 30 14 12 15 -12 0 -25 -5 -28
-10 -5 -8 -11 -7 -21 1 -9 7 -14 8 -14 1z"/>
<path d="M2468 4775 c-16 -35 -5 -40 45 -21 23 9 46 16 50 16 4 0 7 -29 7 -65
0 -65 0 -65 28 -64 16 1 20 3 10 6 -13 3 -18 15 -18 42 0 30 4 37 20 38 11 1
25 -8 32 -20 6 -12 22 -30 35 -40 13 -11 22 -22 19 -24 -3 -3 4 -23 14 -44 22
-41 50 -45 50 -5 0 39 12 47 48 34 27 -11 34 -10 41 1 5 8 16 11 25 8 8 -3 18
-2 21 3 4 6 0 10 -8 10 -8 0 -20 7 -28 16 -17 20 5 35 41 29 21 -4 39 8 40 26
0 4 -9 9 -20 12 -23 6 -27 37 -5 37 8 0 15 7 15 15 0 13 -32 15 -225 15 l-225
0 -12 -25z"/>
<path d="M3250 4790 c0 -5 14 -10 30 -10 17 0 33 0 37 -1 4 0 9 4 11 10 2 7
-12 11 -37 11 -23 0 -41 -4 -41 -10z"/>
<path d="M3340 4778 c0 -32 9 -58 21 -58 4 0 6 7 3 15 -9 21 10 19 31 -5 10
-11 27 -20 37 -20 24 0 69 -30 62 -41 -3 -5 2 -6 10 -3 9 3 16 1 16 -5 0 -6 9
-20 20 -31 24 -24 25 -15 5 34 -15 36 -15 36 4 24 11 -7 23 -9 27 -5 10 9 -28
37 -40 30 -5 -4 -6 -1 -3 4 4 6 22 10 41 10 33 -1 66 20 66 42 0 6 12 11 27
11 56 0 9 14 -55 16 -64 3 -65 2 -37 -11 l30 -13 -42 3 c-31 2 -43 -1 -43 -11
0 -20 -13 -17 -46 11 -36 31 -44 31 -44 0 0 -32 -18 -32 -26 0 -6 24 -22 29
-36 10 -5 -6 -12 -4 -18 5 -8 12 -10 9 -10 -12z"/>
<path d="M4610 4791 l-25 -7 22 -8 c24 -8 43 -1 43 15 0 10 -4 10 -40 0z"/>
<path d="M4713 4790 c-13 -5 -23 -17 -23 -26 0 -12 -6 -15 -25 -10 -35 9 -31
-3 5 -15 35 -13 42 -34 8 -23 -20 6 -21 5 -10 -9 18 -21 -3 -33 -24 -13 -18
19 -31 20 -36 4 -2 -6 -14 8 -27 33 -23 44 -23 41 -5 -38 l7 -28 -22 25 -22
25 6 -30 7 -30 -26 24 c-19 18 -29 22 -37 14 -6 -6 -19 -9 -28 -6 -9 4 -13 3
-9 -2 4 -4 1 -14 -7 -22 -8 -8 -14 -24 -14 -36 2 -21 2 -21 6 1 3 13 10 21 16
19 20 -6 19 -35 -2 -56 -12 -12 -21 -16 -21 -9 0 6 -3 9 -6 5 -3 -3 -3 -11 1
-17 5 -8 11 -8 22 1 8 7 33 12 55 10 29 -1 38 1 32 10 -5 8 1 10 19 7 15 -3
28 0 31 6 2 6 5 3 5 -6 1 -11 6 -15 16 -12 15 6 20 -5 15 -35 -1 -10 6 -12 25
-7 34 9 57 -19 60 -72 2 -28 11 -44 40 -69 45 -39 55 -41 55 -12 0 15 -5 19
-15 15 -8 -3 -15 -1 -15 4 0 6 7 10 15 10 23 0 21 117 -2 143 -17 18 -17 19 0
32 14 10 17 29 17 107 l0 94 -32 1 c-18 1 -43 -2 -55 -7z m37 -35 c10 -13 9
-15 -9 -15 -12 0 -21 6 -21 15 0 8 4 15 9 15 5 0 14 -7 21 -15z m-217 -125
c-7 -27 -43 -48 -43 -25 0 17 31 54 42 48 3 -1 4 -12 1 -23z"/>
<path d="M20 4780 c0 -3 4 -11 9 -19 6 -10 10 -10 16 -1 4 7 17 9 32 5 14 -3
22 -2 19 3 -6 11 -76 22 -76 12z"/>
<path d="M166 4766 c3 -9 11 -16 16 -16 13 0 5 23 -10 28 -7 2 -10 -2 -6 -12z"/>
<path d="M4140 4769 c0 -20 37 -69 53 -69 8 0 8 3 0 11 -6 6 -9 18 -6 26 3 7
1 13 -5 11 -6 -2 -18 6 -26 17 -13 16 -15 17 -16 4z"/>
<path d="M4270 4765 c0 -8 -4 -15 -10 -15 -5 0 -10 5 -10 10 0 6 -7 10 -16 10
-14 0 -14 -2 0 -22 9 -12 16 -30 16 -39 0 -9 7 -30 15 -45 8 -16 15 -25 15
-20 0 5 7 3 15 -4 13 -11 18 -10 30 6 13 19 14 19 29 -1 8 -11 16 -26 16 -32
0 -7 5 -13 11 -13 12 0 2 58 -13 78 -6 6 -7 12 -3 12 5 0 -5 11 -20 25 -21 17
-32 21 -42 14 -6 -6 -17 -8 -23 -4 -8 5 -6 11 6 19 9 7 14 18 10 24 -10 17
-26 15 -26 -3z"/>
<path d="M205 4739 c-4 -10 -11 -17 -16 -13 -17 10 -59 12 -59 3 0 -5 -6 -9
-14 -9 -9 0 -12 -7 -9 -19 4 -15 0 -18 -21 -16 -34 4 -53 -27 -31 -49 9 -9 11
-17 5 -21 -5 -3 -10 -12 -10 -18 0 -8 3 -8 9 2 5 8 11 9 15 3 7 -12 -16 -22
-50 -22 l-24 0 0 -235 0 -236 62 42 c35 24 66 47 70 53 5 8 8 8 8 0 0 -12 -40
-51 -95 -90 -22 -16 -41 -39 -43 -52 -3 -18 7 -12 47 31 27 29 68 63 91 76
l42 23 -24 -38 c-53 -86 -61 -135 -31 -185 16 -27 16 -32 2 -57 -13 -23 -20
-27 -55 -24 -21 2 -47 11 -56 19 -10 9 -18 12 -18 7 0 -18 24 -34 51 -34 15 0
30 -4 33 -9 7 -11 -55 -8 -73 3 -8 5 -11 -13 -11 -63 l0 -71 26 12 c23 11 29
10 45 -11 21 -26 24 -62 9 -92 -8 -13 -21 -19 -45 -19 l-35 0 0 -158 c0 -113
4 -162 13 -171 9 -11 9 -12 0 -7 -9 5 -11 2 -7 -8 3 -9 13 -16 21 -16 8 0 11
5 8 10 -4 6 3 6 17 -1 36 -16 48 -42 64 -142 8 -50 17 -94 21 -97 3 -3 3 15
-1 38 -6 39 -4 46 19 64 29 23 32 40 9 59 -14 11 -18 10 -30 -6 -8 -10 -14
-17 -14 -14 0 6 -28 204 -36 254 -5 33 -2 44 15 59 30 27 28 74 -3 86 -35 13
-24 50 14 50 27 0 27 -2 40 -90 12 -81 11 -92 -4 -115 -14 -22 -15 -29 -5 -42
8 -8 12 -30 11 -48 -3 -33 18 -65 42 -65 7 0 18 -18 25 -39 6 -22 26 -52 44
-68 33 -29 57 -71 57 -100 0 -9 7 -24 15 -33 12 -13 13 -23 6 -43 -8 -20 -6
-28 8 -41 10 -9 27 -16 38 -16 14 0 27 -16 47 -59 15 -33 34 -65 42 -72 8 -7
49 -14 92 -17 48 -3 83 -10 94 -19 15 -14 20 -13 47 7 29 20 31 25 25 63 -6
38 -5 41 9 27 9 -8 19 -27 22 -42 10 -40 -34 -77 -122 -106 -38 -12 -72 -22
-75 -22 -3 0 -9 11 -12 25 -8 31 -46 42 -86 25 -27 -11 -29 -15 -24 -50 6 -34
4 -38 -20 -44 -40 -10 -78 3 -71 23 7 22 -22 49 -71 66 -32 11 -41 20 -52 54
-11 32 -19 41 -36 41 -12 0 -27 -5 -34 -12 -30 -30 1 250 33 299 9 13 11 23 6
23 -13 0 -41 -75 -41 -113 0 -24 -3 -28 -10 -17 -16 25 -13 -205 4 -244 17
-42 61 -76 97 -76 15 0 31 -5 35 -12 4 -7 3 -8 -4 -4 -8 5 -12 -1 -11 -16 0
-13 3 -17 6 -10 2 6 9 10 14 6 5 -3 9 2 9 10 0 21 6 20 29 -3 32 -32 82 -36
158 -13 53 17 70 18 82 9 12 -10 14 -9 8 6 -6 16 6 21 51 20 6 -1 12 3 12 7 0
4 20 15 44 24 71 27 96 52 96 93 0 39 -33 78 -58 68 -7 -3 -20 -5 -28 -5 -8 0
-11 -6 -8 -15 4 -8 -1 -17 -9 -21 -9 -3 -13 -12 -11 -19 7 -18 -16 -31 -27
-14 -5 8 -9 10 -9 5 0 -5 -7 -3 -15 4 -13 11 -14 10 -9 -5 6 -16 2 -17 -47
-10 -68 9 -85 18 -104 55 -22 43 -20 50 18 39 43 -13 136 -13 170 0 34 13 37
53 5 75 -29 21 -52 20 -69 -1 -13 -15 -12 -15 9 -2 24 15 47 7 66 -24 15 -24
-4 -38 -58 -44 -41 -5 -47 -3 -71 26 -30 35 -50 38 -83 15 -22 -15 -22 -15
-22 32 l0 47 23 -20 c23 -21 79 -43 106 -42 9 0 -4 6 -28 14 -24 7 -54 24 -68
37 l-24 23 27 7 c20 5 37 2 58 -11 17 -10 45 -22 63 -26 34 -7 116 13 107 26
-3 5 23 9 57 9 110 0 199 67 199 150 0 40 32 48 85 20 89 -45 133 -12 170 128
15 60 13 132 -5 132 -4 0 -15 -18 -25 -41 -24 -53 -59 -72 -93 -50 -11 7 -9
16 11 47 14 22 31 58 38 82 7 23 17 42 23 42 7 0 19 9 28 19 13 16 14 20 3 25
-11 4 -11 11 -2 35 6 17 17 31 24 31 9 0 10 7 3 25 -8 20 -6 27 5 31 8 4 12
10 9 15 -3 5 0 9 7 9 10 0 10 3 1 12 -19 19 -14 29 13 24 35 -6 47 -16 41 -31
-2 -7 2 -21 10 -32 12 -16 13 -15 7 16 -6 31 -5 33 18 26 13 -3 31 -9 41 -11
9 -3 19 0 23 5 4 7 14 7 31 1 14 -6 31 -10 37 -9 7 0 -4 6 -23 13 -19 7 -45
12 -58 9 -18 -3 -25 3 -34 27 -7 23 -14 28 -21 21 -6 -6 -24 -11 -39 -11 -24
0 -28 4 -28 28 0 40 -41 79 -92 87 -106 16 -108 17 -108 36 0 15 6 19 27 17
38 -4 44 28 8 42 -22 8 -26 15 -23 35 l5 24 -28 -20 c-32 -23 -37 -32 -13 -22
12 4 15 2 12 -8 -9 -28 -40 -20 -86 22 -56 51 -59 56 -35 62 17 4 16 5 -2 11
-11 4 -30 13 -43 19 -18 9 -25 8 -33 -3 -9 -13 -10 -13 -8 0 4 37 -1 52 -16
46 -9 -3 -18 1 -21 9 -5 12 -9 12 -30 -1 -14 -9 -31 -13 -41 -9 -17 6 -16 8 3
23 11 10 19 22 17 28 -2 6 11 18 29 27 28 14 35 14 60 1 24 -12 27 -18 18 -34
-8 -15 -8 -25 0 -38 11 -16 11 -16 6 1 -6 18 18 25 29 7 3 -5 15 -10 26 -10
11 0 18 4 14 9 -3 5 0 13 6 16 6 4 13 -2 16 -15 4 -17 8 -19 15 -8 6 9 7 6 3
-9 -4 -16 0 -26 14 -35 18 -11 19 -14 5 -29 -13 -15 -13 -17 6 -22 12 -3 20 0
20 8 0 10 11 12 40 8 35 -5 39 -3 34 11 -5 12 1 18 25 22 17 4 31 11 31 16 0
6 -11 7 -25 4 -14 -3 -36 -9 -49 -12 -16 -4 -25 0 -30 11 -7 20 3 42 13 27 4
-7 13 -5 25 4 20 14 20 14 0 15 -10 1 -23 0 -29 -1 -28 -6 -58 -8 -47 -4 6 3
12 12 12 21 0 10 6 12 20 8 28 -9 25 9 -5 25 -14 7 -25 19 -25 27 0 7 -7 13
-16 13 -8 0 -13 4 -9 9 3 5 1 12 -5 16 -6 4 -4 12 5 22 11 11 19 12 28 5 9 -8
16 -6 25 9 16 26 6 42 -23 35 -14 -4 -25 -1 -28 8 -7 19 -63 13 -88 -9 -13
-13 -23 -16 -27 -8 -10 15 -52 27 -52 14 0 -6 7 -11 16 -11 24 0 11 -25 -15
-28 -15 -2 -21 -9 -17 -18 6 -16 -35 -64 -55 -64 -8 0 -6 6 7 16 18 15 18 15
-4 11 -17 -4 -22 -1 -20 11 2 12 -5 16 -27 17 -16 0 -36 4 -42 8 -23 14 -14
-9 12 -33 32 -30 18 -50 -36 -50 -22 0 -39 -4 -39 -9 0 -12 -39 -21 -46 -10
-3 5 -10 6 -16 3 -6 -4 -8 1 -4 14 5 15 1 24 -14 32 -11 6 -20 16 -20 22 0 7
4 7 14 -1 17 -14 46 -4 46 17 0 13 -3 12 -16 -4 -15 -18 -15 -18 -9 4 4 13 2
22 -5 22 -6 0 -8 -4 -5 -10 3 -5 0 -10 -8 -10 -23 0 -27 37 -5 59 10 12 15 21
10 21 -5 0 -15 -7 -23 -16 -7 -8 -20 -13 -30 -11 -13 3 -16 0 -12 -11 5 -12 2
-14 -11 -9 -10 4 -24 7 -32 7 -8 0 -14 7 -14 15 0 8 7 15 16 15 8 0 13 4 10 9
-4 5 0 12 6 14 7 3 3 6 -9 6 -16 1 -23 7 -23 22 0 11 5 17 10 14 6 -3 13 1 16
10 4 9 12 14 19 12 6 -3 12 2 12 11 0 19 -25 41 -46 42 -8 0 -20 8 -28 18 -13
15 -14 15 -10 -10 2 -16 1 -28 -3 -28 -8 0 -24 58 -21 77 1 8 -12 12 -36 11
-46 -1 -97 18 -88 33 4 6 -2 13 -14 16 -24 6 -28 35 -8 52 10 8 17 7 26 -2 9
-9 14 -9 20 2 6 9 10 10 12 2 5 -15 59 9 59 25 0 18 -26 35 -59 39 -23 3 -31
-1 -36 -16z m-15 -119 c0 -5 -4 -10 -10 -10 -5 0 -10 5 -10 10 0 6 5 10 10 10
6 0 10 -4 10 -10z m40 -50 c0 -5 -2 -10 -4 -10 -3 0 -8 5 -11 10 -3 6 -1 10 4
10 6 0 11 -4 11 -10z m24 -15 c-4 -8 -10 -15 -14 -15 -5 0 -12 -10 -15 -21
l-7 -21 -21 21 c-11 11 -18 24 -13 28 4 4 11 1 15 -6 7 -11 13 -9 27 7 23 24
36 28 28 7z m-54 -92 c0 -21 -10 -28 -33 -24 -4 1 -16 -6 -25 -15 -9 -9 -18
-12 -20 -6 -1 5 -12 7 -24 4 -17 -4 -19 -2 -13 18 5 15 2 25 -6 31 -8 5 -9 9
-3 9 6 0 17 13 24 30 7 16 16 27 21 24 5 -3 9 0 9 7 0 7 16 -2 35 -21 19 -19
35 -45 35 -57z m125 57 c3 -5 1 -10 -4 -10 -6 0 -11 5 -11 10 0 6 2 10 4 10 3
0 8 -4 11 -10z m620 -190 c-7 -12 -45 -19 -45 -9 0 16 5 24 13 22 4 -2 7 2 7
8 0 8 5 8 15 -1 8 -7 13 -16 10 -20z m-840 11 c17 -1 20 -27 5 -36 -15 -9 -80
14 -80 28 0 11 20 13 75 8z m840 -51 c3 -5 -1 -10 -9 -10 -9 0 -16 5 -16 10 0
6 4 10 9 10 6 0 13 -4 16 -10z m-494 -33 c-13 -13 -26 -3 -16 12 3 6 11 8 17
5 6 -4 6 -10 -1 -17z m525 -24 c-10 -10 -19 5 -10 18 6 11 8 11 12 0 2 -7 1
-15 -2 -18z m-366 -13 c0 -5 -2 -10 -4 -10 -3 0 -8 5 -11 10 -3 6 -1 10 4 10
6 0 11 -4 11 -10z m66 -64 c12 -13 10 -15 -16 -21 -17 -4 -28 -10 -25 -15 3
-4 -5 -10 -18 -14 -32 -9 -77 -7 -77 2 0 14 32 38 65 50 42 15 54 14 71 -2z
m-173 -23 c-7 -2 -19 -2 -25 0 -7 3 -2 5 12 5 14 0 19 -2 13 -5z m274 -9 c-3
-3 -12 -4 -19 -1 -8 3 -5 6 6 6 11 1 17 -2 13 -5z m-587 -215 c0 -15 -19 -49
-28 -49 -4 0 -13 4 -21 9 -12 8 -12 14 -1 40 10 26 15 29 31 20 11 -5 19 -14
19 -20z m38 -27 c2 -12 8 -22 13 -22 18 0 8 -46 -17 -75 -14 -16 -24 -23 -22
-15 3 8 -3 21 -11 30 -9 8 -12 12 -7 8 11 -8 46 19 46 35 0 6 -6 2 -14 -8 -12
-16 -16 -17 -29 -6 -14 11 -14 16 0 47 18 37 36 40 41 6z m837 -2 c11 0 16 -4
10 -8 -5 -4 -11 -13 -12 -19 -4 -18 25 -16 29 1 2 12 7 11 25 -4 20 -16 21
-22 12 -49 -6 -16 -19 -33 -29 -36 -10 -3 -20 -14 -22 -23 -2 -9 -7 6 -11 33
-6 42 -12 54 -37 68 -36 22 -42 52 -7 43 12 -3 31 -6 42 -6z m-573 -255 c29
-25 43 -29 84 -26 16 2 23 -5 27 -26 3 -15 17 -39 30 -53 13 -14 22 -31 19
-38 -2 -6 1 -12 7 -12 6 0 -1 -12 -17 -27 -15 -16 -18 -20 -7 -10 12 9 35 17
53 17 19 0 35 -7 42 -17 8 -12 10 -13 7 -3 -2 8 -13 20 -25 26 -35 17 -36 23
-6 19 16 -1 30 -8 32 -15 3 -7 12 -20 22 -30 22 -22 15 -67 -12 -90 -24 -19
-35 -89 -19 -119 10 -19 9 -22 -16 -32 -30 -11 -127 -5 -169 12 l-25 9 40 42
c42 43 43 51 9 69 -15 8 -19 8 -14 0 4 -6 0 -11 -11 -11 -27 0 -108 73 -99 89
6 9 12 7 22 -8 8 -11 29 -30 47 -43 24 -17 20 -10 -16 26 l-48 49 -30 -29
c-16 -15 -34 -42 -41 -60 -8 -24 -16 -30 -30 -26 -15 4 -19 11 -15 30 4 19 -3
33 -23 54 -16 15 -35 28 -43 28 -12 0 -14 9 -10 39 3 21 0 48 -6 59 -10 18 -7
23 19 39 16 9 30 23 30 29 0 8 14 10 43 7 36 -4 47 0 77 26 19 17 37 30 39 31
2 0 16 -11 33 -25z m697 -268 c-11 -67 -44 -144 -68 -156 -9 -5 -29 -7 -44 -4
l-28 6 20 21 c26 28 43 75 37 101 -4 15 3 25 25 37 16 10 35 32 41 49 17 49
28 14 17 -54z m-124 -1 c19 8 38 -33 30 -64 -3 -15 -18 -39 -32 -54 -21 -22
-30 -25 -45 -17 -17 9 -17 12 13 54 18 25 30 48 27 51 -4 3 -9 -4 -13 -15 -9
-31 -20 -26 -23 11 -2 29 19 60 26 38 2 -5 9 -7 17 -4z m-593 -65 c29 -27 50
-52 47 -55 -25 -25 -146 55 -133 88 10 26 30 19 86 -33z"/>
<path d="M428 3589 c-10 -5 -23 -20 -29 -32 -10 -18 -7 -17 14 6 33 34 70 35
103 1 20 -19 25 -33 22 -59 -2 -18 0 -31 4 -29 10 6 11 56 2 79 -7 19 -55 45
-81 45 -10 0 -26 -5 -35 -11z"/>
<path d="M560 3576 c0 -11 30 -66 36 -66 2 0 -3 15 -12 33 -19 36 -24 44 -24
33z"/>
<path d="M477 3505 c-17 -16 -12 -48 6 -42 20 6 32 36 21 47 -8 8 -16 7 -27
-5z"/>
<path d="M330 3490 c0 -11 7 -20 15 -20 8 0 15 6 15 14 0 8 -7 16 -15 20 -10
4 -15 -1 -15 -14z"/>
<path d="M390 3489 c0 -19 47 -65 57 -56 3 4 1 7 -5 7 -7 0 -21 15 -32 33 -11
18 -20 25 -20 16z"/>
<path d="M504 3444 c-18 -14 -18 -15 4 -4 12 6 22 13 22 15 0 8 -5 6 -26 -11z"/>
<path d="M540 3401 c0 -16 18 -22 23 -9 4 10 6 10 6 1 1 -7 6 -13 12 -13 8 0
8 5 -1 15 -14 17 -40 20 -40 6z"/>
<path d="M650 3395 c0 -15 -3 -17 -9 -7 -7 11 -9 11 -14 -2 -8 -21 12 -31 29
-15 9 10 10 19 4 29 -8 12 -10 12 -10 -5z"/>
<path d="M725 3360 c-3 -11 -18 -29 -32 -40 -14 -11 -21 -20 -15 -20 12 0 62
57 62 71 0 16 -8 10 -15 -11z"/>
<path d="M670 3265 c0 -8 5 -15 10 -15 6 0 10 7 10 15 0 8 -4 15 -10 15 -5 0
-10 -7 -10 -15z"/>
<path d="M520 4730 c0 -5 5 -10 10 -10 6 0 10 5 10 10 0 6 -4 10 -10 10 -5 0
-10 -4 -10 -10z"/>
<path d="M3678 4733 c7 -3 16 -2 19 1 4 3 -2 6 -13 5 -11 0 -14 -3 -6 -6z"/>
<path d="M400 4690 c0 -5 5 -10 11 -10 5 0 7 5 4 10 -3 6 -8 10 -11 10 -2 0
-4 -4 -4 -10z"/>
<path d="M4380 4685 c0 -8 2 -15 4 -15 2 0 6 7 10 15 3 8 1 15 -4 15 -6 0 -10
-7 -10 -15z"/>
<path d="M6 4662 c-3 -6 -1 -14 5 -17 15 -10 25 3 12 16 -7 7 -13 7 -17 1z"/>
<path d="M577 4656 c-9 -23 2 -68 15 -60 5 3 5 11 -2 19 -6 7 -7 15 -2 17 5 1
6 12 2 22 -6 18 -7 18 -13 2z"/>
<path d="M2636 4615 c-10 -8 -24 -16 -30 -18 -6 -2 -8 -8 -4 -12 4 -4 14 0 22
8 9 8 21 17 28 20 7 2 11 7 8 10 -3 3 -14 -1 -24 -8z"/>
<path d="M596 4523 c-3 -3 4 -15 15 -26 14 -15 22 -18 30 -10 6 6 9 16 5 21
-7 11 -43 22 -50 15z"/>
<path d="M716 4510 c-17 -18 -3 -35 32 -37 18 -1 22 3 22 27 0 23 -4 28 -20
27 -12 -1 -27 -8 -34 -17z"/>
<path d="M4680 4450 c0 -5 5 -10 11 -10 5 0 7 5 4 10 -3 6 -8 10 -11 10 -2 0
-4 -4 -4 -10z"/>
<path d="M430 4401 c0 -6 4 -13 10 -16 6 -3 7 1 4 9 -7 18 -14 21 -14 7z"/>
<path d="M4410 4380 c11 -11 20 -30 20 -42 0 -23 1 -23 13 2 9 17 10 26 3 29
-6 2 -15 10 -19 17 -4 8 -15 14 -22 14 -11 0 -10 -5 5 -20z"/>
<path d="M766 4381 c-4 -5 3 -15 15 -21 28 -15 34 -7 10 14 -12 11 -21 13 -25
7z"/>
<path d="M3395 4339 c-11 -17 0 -20 21 -4 17 13 17 14 2 15 -9 0 -20 -5 -23
-11z"/>
<path d="M4767 4326 c-16 -13 -16 -15 8 -30 22 -14 25 -15 25 -1 0 8 -4 15
-10 15 -5 0 -7 7 -4 15 7 18 4 18 -19 1z"/>
<path d="M1010 4283 c0 -14 1 -24 3 -22 1 2 8 11 15 20 10 14 10 18 -3 23 -11
4 -15 -1 -15 -21z"/>
<path d="M2880 4300 c-13 -8 -12 -10 3 -10 9 0 17 5 17 10 0 12 -1 12 -20 0z"/>
<path d="M3430 4300 c0 -5 5 -10 10 -10 6 0 10 5 10 10 0 6 -4 10 -10 10 -5 0
-10 -4 -10 -10z"/>
<path d="M3010 4285 c-14 -8 -33 -18 -42 -21 -25 -9 -23 -44 2 -44 13 0 20 -7
20 -20 0 -13 -7 -20 -20 -20 -11 0 -20 -6 -20 -14 0 -10 7 -12 23 -8 30 7 37
20 30 55 -5 23 -1 33 17 47 31 24 23 44 -10 25z"/>
<path d="M1080 4221 c0 -5 5 -13 10 -16 6 -3 10 -2 10 4 0 5 -4 13 -10 16 -5
3 -10 2 -10 -4z"/>
<path d="M4360 4162 c-21 -41 -23 -48 -8 -32 7 8 22 20 33 26 10 6 20 16 21
22 2 8 0 8 -3 2 -3 -8 -9 -8 -17 -1 -9 8 -16 3 -26 -17z"/>
<path d="M3027 4139 c-9 -6 -17 -14 -17 -19 0 -16 30 -11 37 5 8 21 1 25 -20
14z"/>
<path d="M3435 4139 c-3 -4 8 -15 25 -24 16 -8 30 -12 30 -8 0 4 5 2 12 -5 7
-7 16 -12 22 -12 16 0 -6 18 -47 39 -20 10 -39 15 -42 10z"/>
<path d="M3564 4135 c27 -21 53 -21 32 0 -8 8 -23 15 -33 15 -17 -1 -17 -2 1
-15z"/>
<path d="M3258 4132 c-10 -2 -18 -8 -18 -13 0 -6 -9 -7 -20 -4 -11 3 -20 2
-20 -3 0 -16 43 -22 54 -7 6 7 20 15 31 17 15 3 16 5 5 9 -8 3 -23 4 -32 1z"/>
<path d="M4250 4130 c0 -5 5 -10 10 -10 6 0 10 5 10 10 0 6 -4 10 -10 10 -5 0
-10 -4 -10 -10z"/>
<path d="M4490 4119 c0 -5 5 -7 10 -4 6 3 10 8 10 11 0 2 -4 4 -10 4 -5 0 -10
-5 -10 -11z"/>
<path d="M1590 4111 c0 -10 39 -11 45 -2 2 5 -7 9 -20 9 -14 0 -25 -3 -25 -7z"/>
<path d="M4730 4116 c0 -2 7 -6 15 -10 8 -3 15 -1 15 4 0 6 -7 10 -15 10 -8 0
-15 -2 -15 -4z"/>
<path d="M3290 4101 c-24 -7 -23 -8 14 -19 22 -6 42 -9 45 -7 2 3 -1 5 -7 5
-7 0 -12 7 -12 15 0 16 -3 17 -40 6z"/>
<path d="M1464 4088 c-4 -7 -4 -10 1 -6 4 4 14 3 22 -4 7 -6 17 -8 20 -4 4 4
1 11 -7 16 -20 13 -27 12 -36 -2z"/>
<path d="M1260 4076 c0 -9 5 -16 10 -16 6 0 10 4 10 9 0 6 -4 13 -10 16 -5 3
-10 -1 -10 -9z"/>
<path d="M1600 4071 c0 -6 5 -13 10 -16 6 -3 10 1 10 9 0 9 -4 16 -10 16 -5 0
-10 -4 -10 -9z"/>
<path d="M2740 4070 c0 -5 5 -10 10 -10 6 0 10 5 10 10 0 6 -4 10 -10 10 -5 0
-10 -4 -10 -10z"/>
<path d="M3570 4044 c-11 -13 -10 -16 8 -21 12 -3 22 -10 22 -16 0 -6 2 -8 5
-5 8 8 -5 58 -15 58 -4 0 -13 -7 -20 -16z"/>
<path d="M1460 4045 c0 -3 7 -13 15 -21 21 -21 19 -37 -6 -60 -21 -19 -21 -19
-19 1 4 32 1 45 -10 45 -5 0 -9 -6 -7 -12 1 -9 -10 -12 -35 -10 -29 3 -38 0
-38 -12 0 -18 20 -32 20 -14 1 8 7 6 18 -7 10 -11 27 -25 37 -31 29 -16 26
-49 -3 -48 -14 0 -21 -4 -18 -12 3 -7 -2 -18 -10 -25 -11 -9 -12 -15 -4 -23 8
-8 14 -6 21 7 22 37 45 17 40 -35 -3 -20 15 -24 22 -5 2 6 8 8 13 4 5 -4 2
-12 -5 -16 -8 -5 -11 -17 -7 -29 9 -26 45 -39 57 -21 14 22 10 49 -6 49 -28 0
-15 21 22 36 34 15 40 14 72 -2 56 -29 58 -28 22 5 -34 29 -35 30 -16 51 10
11 26 20 37 20 10 0 18 5 18 10 0 6 9 10 20 10 11 0 20 -7 20 -15 0 -8 5 -15
11 -15 6 0 9 7 5 15 -3 8 -2 15 3 15 4 0 6 12 3 26 -4 24 -2 26 21 22 20 -4
25 -1 24 14 -1 11 -8 17 -17 16 -8 -1 -21 1 -28 6 -23 14 -73 25 -66 15 3 -6
-3 -13 -15 -16 -12 -3 -21 -12 -21 -19 0 -17 -22 -18 -37 -3 -8 8 -13 8 -17 0
-4 -6 -14 -11 -22 -11 -13 0 -13 4 1 30 17 33 20 54 5 45 -5 -3 -16 -3 -22 2
-7 4 -18 8 -24 9 -6 1 -26 5 -43 9 -17 4 -31 4 -31 0z m91 -132 c14 -26 5 -43
-13 -25 -16 16 -28 15 -28 -3 0 -9 -9 -15 -21 -15 -12 0 -19 5 -16 13 2 6 10
12 18 12 10 0 13 10 11 33 -2 30 -1 31 17 20 11 -7 25 -22 32 -35z"/>
<path d="M3926 4001 c-25 -27 -19 -33 14 -16 34 18 36 21 16 28 -8 3 -21 -2
-30 -12z"/>
<path d="M1280 3980 c0 -5 7 -10 16 -10 8 0 12 5 9 10 -3 6 -10 10 -16 10 -5
0 -9 -4 -9 -10z"/>
<path d="M1336 3974 c-8 -21 -8 -39 1 -30 8 7 15 46 9 46 -2 0 -7 -7 -10 -16z"/>
<path d="M1347 3925 c-4 -8 -1 -18 5 -21 7 -4 13 -3 15 3 2 5 16 8 31 6 26 -4
26 -4 8 11 -25 20 -52 20 -59 1z"/>
<path d="M3891 3909 c-9 -16 -18 -19 -43 -14 -21 5 -28 4 -24 -4 4 -6 16 -11
28 -11 23 0 73 36 60 44 -4 2 -14 -4 -21 -15z"/>
<path d="M1230 3900 c0 -5 5 -10 11 -10 5 0 7 5 4 10 -3 6 -8 10 -11 10 -2 0
-4 -4 -4 -10z"/>
<path d="M3994 3869 c-19 -22 -19 -22 4 -10 12 6 22 16 22 21 0 15 -5 12 -26
-11z"/>
<path d="M3870 3860 c-9 -6 -7 -13 10 -30 27 -27 57 -20 38 10 -15 24 -31 31
-48 20z"/>
<path d="M3886 3765 c-17 -18 -30 -20 -20 -3 4 7 3 8 -4 4 -16 -10 -16 -11 14
-43 18 -18 28 -24 31 -15 3 6 12 12 20 12 10 0 13 6 9 16 -3 9 -6 19 -6 24 0
16 -30 19 -44 5z"/>
<path d="M4190 3741 c0 -11 50 -24 58 -16 8 8 -19 25 -40 25 -10 0 -18 -4 -18
-9z"/>
<path d="M1350 3710 c0 -5 5 -10 10 -10 6 0 10 5 10 10 0 6 -4 10 -10 10 -5 0
-10 -4 -10 -10z"/>
<path d="M4090 3700 c19 -13 30 -13 30 0 0 6 -10 10 -22 10 -19 0 -20 -2 -8
-10z"/>
<path d="M4274 3605 c8 -8 19 -15 25 -15 17 0 13 17 -5 24 -27 10 -36 7 -20
-9z"/>
<path d="M3712 3538 c5 -15 28 -23 28 -10 0 5 -7 13 -16 16 -10 4 -14 1 -12
-6z"/>
<path d="M4195 3450 c3 -5 8 -10 11 -10 2 0 4 5 4 10 0 6 -5 10 -11 10 -5 0
-7 -4 -4 -10z"/>
<path d="M4230 3440 c-9 -17 -8 -20 10 -20 11 0 20 5 20 10 0 6 8 10 18 10 14
0 15 2 2 10 -23 15 -38 12 -50 -10z"/>
<path d="M4190 3402 c0 -12 19 -26 26 -19 2 2 -2 10 -11 17 -9 8 -15 8 -15 2z"/>
<path d="M1633 3246 c-27 -13 -32 -56 -7 -56 9 0 12 5 8 13 -6 9 -5 9 8 0 19
-16 28 -7 28 29 0 30 -3 31 -37 14z m24 -38 c-3 -8 -6 -5 -6 6 -1 11 2 17 5
13 3 -3 4 -12 1 -19z"/>
<path d="M4077 3233 c-12 -11 -8 -21 13 -26 22 -6 23 -5 14 17 -7 17 -16 20
-27 9z"/>
<path d="M1580 3219 c0 -5 5 -7 10 -4 6 3 10 8 10 11 0 2 -4 4 -10 4 -5 0 -10
-5 -10 -11z"/>
<path d="M1633 3155 c-6 -14 -7 -25 -2 -25 5 0 9 5 9 11 0 5 4 8 9 5 5 -4 7 3
4 14 -7 25 -6 25 -20 -5z"/>
<path d="M4001 3164 c-19 -8 -32 -17 -28 -20 5 -6 67 23 67 31 0 6 0 7 -39
-11z"/>
<path d="M1670 3154 c0 -8 5 -12 10 -9 6 4 8 11 5 16 -9 14 -15 11 -15 -7z"/>
<path d="M971 3134 c0 -11 3 -14 6 -6 3 7 2 16 -1 19 -3 4 -6 -2 -5 -13z"/>
<path d="M220 3136 c0 -2 8 -10 18 -17 15 -13 16 -12 3 4 -13 16 -21 21 -21
13z"/>
<path d="M3924 3111 c6 -9 -28 -44 -35 -36 -3 2 -5 -4 -5 -15 0 -16 5 -14 28
12 24 27 29 48 12 48 -3 0 -3 -4 0 -9z"/>
<path d="M4330 3080 c0 -5 7 -7 15 -4 8 4 15 8 15 10 0 2 -7 4 -15 4 -8 0 -15
-4 -15 -10z"/>
<path d="M242 3050 c0 -19 2 -27 5 -17 2 9 2 25 0 35 -3 9 -5 1 -5 -18z"/>
<path d="M4216 3065 c-3 -8 -1 -15 4 -15 6 0 10 7 10 15 0 8 -2 15 -4 15 -2 0
-6 -7 -10 -15z"/>
<path d="M4255 3070 c3 -5 8 -10 11 -10 2 0 4 5 4 10 0 6 -5 10 -11 10 -5 0
-7 -4 -4 -10z"/>
<path d="M4086 3042 c-3 -5 1 -9 9 -9 8 0 12 4 9 9 -3 4 -7 8 -9 8 -2 0 -6 -4
-9 -8z"/>
<path d="M232 2990 c0 -14 2 -19 5 -12 2 6 2 18 0 25 -3 6 -5 1 -5 -13z"/>
<path d="M180 2931 c0 -17 18 -31 41 -31 14 0 11 17 -7 34 -21 21 -34 20 -34
-3z"/>
<path d="M267 2894 c14 -43 31 -54 82 -54 21 0 23 3 17 32 -10 48 -33 69 -76
66 l-37 -3 14 -41z"/>
<path d="M560 2819 c0 -11 4 -18 10 -14 5 3 7 12 3 20 -7 21 -13 19 -13 -6z"/>
<path d="M4283 2640 c-7 -58 -15 -118 -18 -135 -5 -22 -4 -26 4 -15 15 22 33
140 29 201 -3 48 -4 42 -15 -51z"/>
<path d="M650 2686 c-6 -8 -18 -12 -26 -9 -26 10 -15 -6 22 -31 19 -13 35 -28
34 -32 -1 -5 3 -10 9 -12 14 -5 14 53 1 79 -13 23 -23 24 -40 5z"/>
<path d="M264 2607 c3 -10 6 -24 7 -30 0 -7 5 -1 10 12 5 13 7 26 4 29 -3 3
-5 -1 -5 -9 0 -12 -2 -11 -11 1 -9 12 -10 12 -5 -3z"/>
<path d="M246 2545 c-9 -9 -16 -22 -16 -28 0 -26 -50 -116 -72 -131 -13 -9
-48 -20 -78 -25 l-55 -10 53 4 c82 7 118 35 159 123 35 77 37 95 9 67z"/>
<path d="M4242 2445 c-17 -37 -14 -45 4 -12 9 16 14 31 11 33 -2 2 -9 -7 -15
-21z"/>
<path d="M0 2380 c0 -11 4 -20 9 -20 5 0 7 9 4 20 -3 11 -7 20 -9 20 -2 0 -4
-9 -4 -20z"/>
<path d="M628 2092 c-27 -5 -22 -26 17 -68 25 -28 35 -34 35 -21 0 22 18 22
42 0 17 -15 21 -15 29 -3 8 11 9 9 4 -7 -4 -13 -2 -23 4 -23 6 0 7 -7 4 -17
-4 -10 -2 -14 4 -10 12 7 63 -14 63 -26 0 -5 5 -5 11 -1 7 4 10 1 7 -7 -3 -8
-11 -13 -18 -11 -7 2 -9 -5 -5 -17 3 -11 1 -23 -6 -26 -13 -9 7 -25 31 -25 11
0 11 3 2 12 -20 20 -14 48 10 48 12 0 18 3 15 7 -4 3 -1 13 5 20 10 12 8 14
-8 11 -12 -2 -18 2 -16 11 4 17 -16 31 -44 31 -26 0 -38 35 -19 54 18 17 6 30
-13 14 -18 -15 -42 -19 -42 -7 0 6 -4 8 -9 4 -5 -3 -12 -1 -16 4 -3 6 -12 8
-20 5 -9 -4 -16 3 -20 19 -7 28 -20 36 -47 29z"/>
<path d="M565 2050 c3 -5 8 -10 11 -10 2 0 4 5 4 10 0 6 -5 10 -11 10 -5 0 -7
-4 -4 -10z"/>
<path d="M2670 2050 c-23 -14 -7 -21 28 -11 20 6 45 6 64 0 18 -5 42 -9 53 -8
16 0 14 4 -10 14 -35 16 -113 19 -135 5z"/>
<path d="M1190 1990 c0 -5 5 -10 11 -10 5 0 7 5 4 10 -3 6 -8 10 -11 10 -2 0
-4 -4 -4 -10z"/>
<path d="M50 1950 c0 -5 5 -10 11 -10 5 0 7 5 4 10 -3 6 -8 10 -11 10 -2 0 -4
-4 -4 -10z"/>
<path d="M945 1930 c-3 -5 1 -13 10 -16 22 -9 29 1 11 15 -10 8 -16 9 -21 1z"/>
<path d="M2712 1929 c-42 -13 -107 -79 -124 -127 -20 -58 -17 -274 5 -341 42
-124 94 -164 212 -164 105 0 183 44 228 128 30 55 31 205 2 283 -17 48 -82
139 -91 129 -2 -2 3 -22 12 -45 27 -68 1 -122 -60 -122 -99 0 -149 216 -53
233 20 3 20 4 -8 16 -43 18 -85 22 -123 10z"/>
<path d="M1875 1839 c-19 -17 -33 -35 -30 -39 3 -5 18 5 34 21 16 16 39 29 50
29 12 0 21 5 21 10 0 20 -40 9 -75 -21z"/>
<path d="M0 1814 c0 -11 8 -29 19 -38 16 -15 19 -15 24 -2 4 9 1 15 -5 13 -6
-1 -17 9 -25 23 -12 23 -13 23 -13 4z"/>
<path d="M547 1779 c-4 -15 -2 -19 10 -15 8 3 17 6 19 6 10 0 3 18 -10 23 -8
3 -16 -2 -19 -14z"/>
<path d="M1 1744 c0 -11 3 -14 6 -6 3 7 2 16 -1 19 -3 4 -6 -2 -5 -13z"/>
<path d="M578 1743 c0 -10 0 -29 1 -41 1 -13 -3 -30 -10 -38 -8 -10 -8 -14 0
-14 15 0 14 -19 -3 -36 -17 -16 -30 -19 -21 -4 3 6 1 10 -4 10 -15 0 -14 -13
2 -29 10 -11 8 -12 -9 -7 -16 5 -23 0 -32 -18 -9 -19 -8 -25 4 -30 8 -3 14
-17 14 -30 0 -14 7 -29 16 -34 22 -12 57 22 49 48 -4 12 2 23 17 34 19 14 24
14 38 1 9 -8 22 -15 28 -15 7 0 12 -4 12 -10 0 -5 -4 -10 -10 -10 -5 0 -10 -4
-10 -10 0 -5 7 -10 15 -10 8 0 15 -9 15 -20 0 -11 5 -20 10 -20 6 0 10 5 10
11 0 8 4 8 14 0 10 -8 16 -8 25 3 14 17 -1 31 -33 31 -11 0 -21 6 -23 13 -4
11 15 16 54 15 7 0 11 9 10 21 -1 13 4 21 13 21 8 0 18 8 22 17 4 10 13 15 20
13 8 -3 13 3 13 19 0 13 -3 22 -7 20 -4 -3 -16 0 -27 6 -14 7 -22 7 -27 -1 -3
-6 -15 -9 -25 -6 -11 3 -19 1 -19 -4 0 -4 -7 -6 -15 -3 -8 4 -15 12 -15 19 0
22 -32 47 -52 42 -15 -4 -23 3 -34 29 -16 38 -23 43 -26 17z m19 -151 c-9 -2
-15 -8 -11 -13 3 -5 11 -6 17 -3 7 4 2 -3 -10 -15 -23 -22 -43 -28 -43 -12 0
5 5 11 10 13 6 2 12 13 12 24 2 16 7 20 23 15 17 -4 18 -6 2 -9z m-17 -86 c0
-2 -7 -6 -15 -10 -8 -3 -15 -1 -15 4 0 6 7 10 15 10 8 0 15 -2 15 -4z"/>
<path d="M300 1722 c0 -10 36 -31 53 -32 9 0 17 -4 17 -10 0 -5 7 -10 16 -10
13 0 15 -7 11 -35 -3 -19 -2 -35 4 -35 5 0 9 -7 9 -16 0 -15 -2 -15 -25 0 -13
9 -27 16 -29 16 -8 0 7 -34 18 -42 6 -4 7 -11 2 -15 -5 -4 -11 -2 -13 5 -5 14
-33 17 -33 3 0 -5 -12 -16 -26 -26 -15 -10 -23 -12 -19 -4 6 9 3 11 -9 6 -15
-6 -17 -3 -12 18 5 18 1 28 -14 37 -11 7 -20 16 -20 21 0 4 4 6 9 3 4 -3 14 7
20 21 11 23 10 29 -5 40 -14 10 -19 10 -30 -5 -13 -16 -13 -16 -14 1 0 19 -16
24 -22 6 -2 -7 -12 -7 -33 1 l-30 11 24 -25 24 -26 -21 -18 c-16 -14 -18 -22
-10 -30 9 -9 6 -16 -10 -30 -22 -19 -22 -19 -2 -37 11 -10 20 -13 20 -7 0 7 9
12 21 12 11 0 18 4 14 9 -3 5 0 13 6 16 14 9 62 -36 50 -48 -11 -11 -2 -47 13
-48 6 -1 18 -3 26 -3 8 -1 30 -11 48 -21 27 -16 32 -25 29 -47 -4 -33 0 -35
22 -9 11 13 27 19 44 17 15 -2 27 1 27 5 0 5 -9 9 -20 9 -26 0 -35 22 -20 50
8 16 15 19 24 11 16 -13 27 -4 19 15 -3 8 1 14 11 14 9 0 16 5 16 11 0 5 5 7
10 4 6 -3 10 -1 10 4 0 6 -4 11 -10 11 -5 0 -10 7 -10 15 0 8 -5 15 -11 15 -6
0 -9 6 -6 13 2 6 13 10 23 9 13 -3 16 0 9 6 -5 6 -19 12 -30 14 -21 3 -35 48
-15 48 6 0 8 5 5 10 -4 6 -1 17 5 25 10 12 9 15 -7 15 -10 0 -23 4 -29 9 -10
10 -124 31 -124 23z m-96 -114 c-3 -5 -10 -6 -15 -3 -5 4 -9 1 -9 -6 0 -7 -3
-10 -6 -6 -9 9 3 24 20 24 8 0 13 -4 10 -9z m-24 -48 c0 -5 -5 -10 -11 -10 -5
0 -7 5 -4 10 3 6 8 10 11 10 2 0 4 -4 4 -10z m173 -81 c-3 -10 -2 -26 1 -35 5
-14 9 -14 24 -3 15 13 16 12 3 -4 -19 -23 -39 -5 -41 38 -3 43 -1 52 9 36 5
-7 6 -22 4 -32z m14 -21 c-3 -8 -6 -5 -6 6 -1 11 2 17 5 13 3 -3 4 -12 1 -19z"/>
<path d="M150 1712 c0 -13 38 -23 46 -11 3 5 1 9 -5 9 -5 0 -16 3 -25 6 -9 3
-16 2 -16 -4z"/>
<path d="M1851 1679 c-28 -20 -51 -48 -66 -82 -66 -144 -54 -367 23 -427 52
-42 144 -17 195 51 42 57 57 195 35 315 -12 68 -24 84 -26 33 -2 -63 -55 -79
-81 -24 -30 61 -12 165 26 151 8 -3 11 -1 8 4 -13 21 -72 10 -114 -21z"/>
<path d="M312 1678 c2 -6 15 -13 28 -15 24 -3 24 -3 5 11 -24 18 -38 20 -33 4z"/>
<path d="M90 1660 c0 -5 5 -10 11 -10 5 0 7 5 4 10 -3 6 -8 10 -11 10 -2 0 -4
-4 -4 -10z"/>
<path d="M0 1652 c0 -14 11 -21 26 -15 21 8 17 23 -6 23 -11 0 -20 -4 -20 -8z"/>
<path d="M3274 1595 c-7 -19 -14 -40 -13 -47 0 -7 5 1 11 17 23 66 52 65 87
-3 11 -20 20 -33 21 -29 1 26 -55 97 -77 97 -8 0 -21 -16 -29 -35z"/>
<path d="M270 1609 c0 -5 5 -7 10 -4 6 3 10 8 10 11 0 2 -4 4 -10 4 -5 0 -10
-5 -10 -11z"/>
<path d="M295 1600 c-3 -5 1 -10 9 -10 9 0 16 5 16 10 0 6 -4 10 -9 10 -6 0
-13 -4 -16 -10z"/>
<path d="M850 1579 c13 -5 28 -15 32 -22 5 -8 8 -5 8 8 0 16 -7 21 -32 22 -32
2 -32 2 -8 -8z"/>
<path d="M3253 1480 c0 -30 2 -43 4 -27 2 15 2 39 0 55 -2 15 -4 2 -4 -28z"/>
<path d="M3399 1455 c8 -36 17 -63 19 -61 6 6 -18 115 -27 120 -3 3 0 -24 8
-59z"/>
<path d="M4774 1504 c-18 -14 -18 -15 4 -4 12 6 22 13 22 15 0 8 -5 6 -26 -11z"/>
<path d="M788 1502 c-24 -5 -23 -23 2 -29 11 -3 20 -9 20 -14 0 -5 9 -1 20 8
11 10 20 20 20 24 0 9 -40 16 -62 11z"/>
<path d="M156 1427 c1 -19 8 -35 20 -42 10 -5 21 -11 24 -13 2 -2 -2 -7 -10
-12 -8 -5 -11 -13 -6 -17 5 -4 11 -2 13 5 9 23 22 12 46 -40 36 -77 37 -84 18
-102 -22 -20 -31 -20 -45 -1 -6 8 -25 18 -43 21 -26 5 -31 3 -30 -12 2 -21 29
-53 40 -47 18 10 3 -16 -34 -56 -37 -40 -43 -43 -94 -45 l-55 -1 0 -42 c0 -36
3 -43 20 -43 11 0 20 -5 20 -11 0 -5 4 -7 10 -4 5 3 10 0 10 -7 0 -8 5 -6 11
5 6 9 7 27 4 40 -5 16 -4 18 4 8 12 -18 3 -110 -13 -130 -8 -11 -8 -13 1 -7 9
5 13 -2 14 -26 1 -18 5 1 9 43 11 111 35 175 89 232 57 62 108 86 186 88 33 1
49 3 35 6 -58 9 -69 13 -64 27 3 8 1 17 -5 21 -6 3 -11 15 -11 26 0 11 -7 22
-15 25 -8 4 -15 14 -15 24 0 11 -4 21 -9 25 -5 3 -7 17 -5 31 4 20 1 25 -10
21 -9 -4 -16 2 -19 15 -5 17 -11 20 -40 15 -19 -3 -39 -1 -43 3 -5 5 -9 -5 -8
-23z"/>
<path d="M3320 1435 c-17 -20 -8 -169 15 -243 22 -72 28 -62 9 13 -20 74 -24
216 -7 222 6 2 20 -19 32 -49 21 -57 27 -55 11 3 -6 20 -18 44 -29 53 -16 15
-19 15 -31 1z"/>
<path d="M4630 1414 c-77 -50 -129 -76 -141 -69 -5 4 -15 2 -22 -4 -7 -6 -18
-6 -26 -1 -8 5 -22 4 -32 -3 -13 -8 -21 -8 -32 2 -13 10 -18 8 -31 -10 -13
-19 -18 -20 -31 -9 -13 11 -20 11 -40 0 -20 -11 -27 -11 -41 1 -14 11 -17 10
-26 -4 -6 -11 -16 -16 -28 -12 -18 6 -17 3 2 -60 11 -37 17 -73 14 -80 -4 -12
-41 -35 -278 -175 -60 -35 -106 -65 -104 -67 7 -7 789 456 857 508 40 31 17
21 -41 -17z m-185 -102 c-3 -3 -11 0 -18 7 -9 10 -8 11 6 5 10 -3 15 -9 12
-12z m-74 -24 c11 -21 11 -22 -4 -9 -10 7 -17 17 -17 22 0 15 9 10 21 -13z
m-161 -19 c0 -6 -4 -7 -10 -4 -5 3 -10 11 -10 16 0 6 5 7 10 4 6 -3 10 -11 10
-16z m48 -4 c-3 -3 -9 2 -12 12 -6 14 -5 15 5 6 7 -7 10 -15 7 -18z m-32 -83
c-9 -8 -24 41 -18 58 4 9 9 2 15 -19 4 -18 6 -36 3 -39z"/>
<path d="M3253 1335 c0 -44 2 -61 4 -37 2 23 2 59 0 80 -2 20 -4 1 -4 -43z"/>
<path d="M423 1363 c-13 -2 -23 -11 -23 -19 0 -18 15 -18 34 2 14 13 22 27 14
23 -2 -1 -13 -4 -25 -6z"/>
<path d="M3422 1350 c0 -14 2 -19 5 -12 2 6 2 18 0 25 -3 6 -5 1 -5 -13z"/>
<path d="M2150 1325 c0 -8 2 -15 4 -15 2 0 6 7 10 15 3 8 1 15 -4 15 -6 0 -10
-7 -10 -15z"/>
<path d="M3432 1279 c-1 -25 -4 -68 -7 -95 l-5 -49 11 40 c5 22 8 65 6 95 -3
54 -3 54 -5 9z"/>
<path d="M1312 1235 c-38 -17 -143 -118 -161 -155 -8 -17 -3 -14 16 10 48 61
108 115 148 134 l38 18 18 -23 c10 -13 23 -52 30 -87 6 -35 13 -61 16 -58 10
9 -21 128 -39 151 -22 29 -22 29 -66 10z"/>
<path d="M3262 1220 c0 -19 3 -44 8 -55 8 -18 9 -18 8 5 0 14 -4 39 -8 55 l-8
30 0 -35z"/>
<path d="M450 1200 c8 -5 20 -10 25 -10 6 0 3 5 -5 10 -8 5 -19 10 -25 10 -5
0 -3 -5 5 -10z"/>
<path d="M2450 1159 c-22 -18 -22 -19 -3 -10 12 6 25 16 28 21 9 15 3 12 -25
-11z"/>
<path d="M530 1167 c0 -2 15 -16 33 -33 l32 -29 -29 33 c-28 30 -36 37 -36 29z"/>
<path d="M2273 1123 c26 -2 67 -2 90 0 23 2 2 3 -48 3 -49 0 -68 -1 -42 -3z"/>
<path d="M3360 1126 c0 -2 8 -10 18 -17 15 -13 16 -12 3 4 -13 16 -21 21 -21
13z"/>
<path d="M2190 1110 c-8 -5 -10 -10 -5 -10 6 0 17 5 25 10 8 5 11 10 5 10 -5
0 -17 -5 -25 -10z"/>
<path d="M1 1094 c0 -11 3 -14 6 -6 3 7 2 16 -1 19 -3 4 -6 -2 -5 -13z"/>
<path d="M2083 1090 c2 -8 14 -16 28 -17 19 -1 20 -1 4 4 -11 3 -24 10 -28 17
-6 7 -7 6 -4 -4z"/>
<path d="M3291 1090 c0 -8 4 -24 9 -35 5 -13 9 -14 9 -5 0 8 -4 24 -9 35 -5
13 -9 14 -9 5z"/>
<path d="M1277 1032 c-15 -15 -29 -43 -32 -62 l-6 -35 15 38 c8 22 24 50 37
63 12 13 20 24 18 24 -3 0 -17 -13 -32 -28z"/>
<path d="M1111 1013 c-29 -57 -51 -142 -50 -187 2 -37 2 -36 9 14 8 63 25 119
52 173 10 20 16 37 13 37 -2 0 -13 -17 -24 -37z"/>
<path d="M630 1021 c0 -6 4 -13 10 -16 6 -3 7 1 4 9 -7 18 -14 21 -14 7z"/>
<path d="M1402 990 c0 -19 2 -27 5 -17 2 9 2 25 0 35 -3 9 -5 1 -5 -18z"/>
<path d="M451 959 c-13 -5 -21 -12 -18 -15 3 -3 18 1 34 10 31 17 21 20 -16 5z"/>
<path d="M661 934 c0 -11 3 -14 6 -6 3 7 2 16 -1 19 -3 4 -6 -2 -5 -13z"/>
<path d="M1391 934 c0 -11 3 -14 6 -6 3 7 2 16 -1 19 -3 4 -6 -2 -5 -13z"/>
<path d="M243 932 c-6 -4 9 -7 33 -8 24 0 44 3 44 8 0 10 -61 11 -77 0z"/>
<path d="M1232 910 c0 -14 2 -19 5 -12 2 6 2 18 0 25 -3 6 -5 1 -5 -13z"/>
<path d="M1551 914 c0 -11 3 -14 6 -6 3 7 2 16 -1 19 -3 4 -6 -2 -5 -13z"/>
<path d="M3725 879 c-38 -23 -99 -57 -135 -75 -36 -19 -108 -61 -160 -94 l-95
-58 -64 34 c-55 31 -72 35 -125 33 -34 -1 -94 5 -134 14 -40 10 -88 17 -105
17 -30 1 -31 1 -13 15 26 19 3 19 -34 0 -33 -17 -58 -17 -152 -3 -73 12 -111
3 -144 -33 -15 -17 -32 -19 -168 -19 -139 0 -306 10 -431 26 -80 10 -48 -3 40
-16 44 -7 171 -15 283 -19 l203 -6 -83 -61 c-46 -34 -114 -82 -153 -107 -66
-42 -76 -45 -180 -57 -60 -7 -137 -16 -170 -21 -55 -8 -63 -7 -98 17 -21 14
-41 23 -44 21 -2 -3 21 -19 52 -37 l55 -32 -6 -51 c-9 -71 -21 -84 -46 -52
-11 14 -28 25 -38 25 -11 0 -24 8 -30 17 -10 16 -10 15 -5 -4 4 -16 1 -23 -14
-28 -20 -6 -20 -17 1 -62 11 -23 40 -41 32 -20 -5 13 42 64 51 56 2 -3 1 -20
-5 -37 -5 -20 -5 -30 1 -27 5 4 9 12 9 19 0 8 7 19 15 26 12 10 18 9 31 -5 15
-14 37 -16 194 -11 166 5 180 7 221 31 24 13 48 25 52 25 13 0 -4 -99 -34
-202 -16 -54 -29 -102 -29 -108 0 -7 110 -10 331 -10 217 0 328 3 324 10 -3 6
0 10 7 10 11 0 12 21 6 108 -7 103 -7 108 15 125 l22 18 -24 -11 c-27 -14 -38
-6 -44 35 l-4 30 -2 -32 c-1 -35 -17 -45 -24 -16 -4 17 -5 17 -6 1 -1 -21 -5
-22 -31 -8 -16 8 -17 15 -9 42 5 18 6 41 3 50 -3 10 0 18 6 18 6 0 8 -5 4 -12
-4 -7 -3 -8 5 -4 6 4 9 11 7 15 -3 4 7 19 22 32 59 54 58 53 107 25 25 -15 45
-31 45 -35 0 -17 33 -21 67 -10 19 6 37 8 40 5 6 -6 32 -227 33 -279 0 -27 2
-28 33 -22 47 10 61 28 15 20 -32 -6 -38 -4 -38 9 0 16 20 27 124 70 70 29 32
26 -45 -3 -52 -20 -76 -25 -81 -17 -10 15 -3 19 81 52 40 15 69 30 63 32 -5 1
-38 -8 -73 -23 -68 -27 -79 -30 -79 -17 0 5 73 40 163 77 158 66 417 190 417
200 0 7 -36 -8 -165 -71 -66 -33 -138 -67 -160 -76 -153 -64 -239 -98 -246
-98 -5 0 -9 8 -9 19 0 12 12 23 33 31 189 75 504 226 493 237 -3 3 -72 -28
-153 -70 -173 -87 -333 -157 -362 -157 -46 0 -16 28 75 70 172 80 289 139 275
140 -7 0 -73 -30 -147 -66 -73 -36 -146 -69 -161 -74 -16 -4 -36 -11 -45 -15
-13 -5 -18 -2 -18 12 0 14 48 43 203 121 307 156 588 304 583 309 -2 2 -80
-35 -173 -83 -369 -192 -455 -233 -470 -227 -11 4 -14 2 -9 -5 4 -7 5 -12 3
-12 -3 0 -31 -12 -63 -26 -66 -29 -59 -8 9 25 23 12 66 39 95 61 29 22 133 80
230 128 207 103 405 212 398 220 -3 2 -57 -25 -120 -61 -122 -69 -439 -227
-457 -227 -22 0 5 21 89 68 322 181 402 227 402 235 0 5 -15 0 -32 -11 -18
-11 -131 -75 -251 -141 -157 -89 -221 -119 -233 -113 -12 7 12 25 103 79 65
39 141 83 168 98 109 60 181 106 163 105 -2 0 -34 -19 -73 -41z m-1151 -295
c20 -19 21 -38 3 -31 -8 3 -19 2 -25 -2 -6 -3 35 -6 91 -6 86 0 109 -4 144
-23 44 -23 68 -54 60 -77 -3 -7 -31 -25 -62 -40 l-56 -28 -41 42 c-23 22 -48
41 -56 41 -8 0 4 -13 26 -30 126 -91 100 -274 -50 -351 -98 -50 -226 10 -255
121 -27 97 18 194 112 243 17 9 26 16 22 17 -17 0 -53 -24 -94 -63 -38 -37
-45 -39 -67 -29 -36 16 -44 57 -17 86 22 23 161 76 200 76 15 0 18 5 14 21 -4
15 0 27 12 35 23 17 20 17 39 -2z m-770 -262 c8 -13 -50 -65 -63 -58 -19 12
-12 42 12 54 27 13 44 15 51 4z"/>
<path d="M2578 493 c23 -2 59 -2 80 0 20 2 1 4 -43 4 -44 0 -61 -2 -37 -4z"/>
<path d="M2760 485 c14 -8 30 -14 35 -14 6 0 -1 6 -15 14 -14 8 -29 14 -35 14
-5 0 1 -6 15 -14z"/>
<path d="M2470 480 c-20 -6 -21 -8 -5 -8 11 0 31 4 45 8 20 6 21 8 5 8 -11 0
-31 -4 -45 -8z"/>
<path d="M2393 455 c-18 -8 -33 -16 -33 -19 0 -5 71 22 79 30 9 8 -15 3 -46
-11z"/>
<path d="M2528 463 c18 -2 45 -2 60 0 15 2 0 4 -33 4 -33 0 -45 -2 -27 -4z"/>
<path d="M1381 894 c0 -11 3 -14 6 -6 3 7 2 16 -1 19 -3 4 -6 -2 -5 -13z"/>
<path d="M672 870 c0 -14 2 -19 5 -12 2 6 2 18 0 25 -3 6 -5 1 -5 -13z"/>
<path d="M1241 858 c-1 -15 9 -37 22 -50 12 -13 16 -16 8 -6 -7 9 -17 32 -21
50 -7 31 -8 31 -9 6z"/>
<path d="M1370 863 c0 -6 -12 -28 -26 -49 -15 -21 -19 -32 -10 -24 21 17 49
70 42 78 -3 3 -6 1 -6 -5z"/>
<path d="M1601 853 c21 -34 225 -115 285 -112 10 0 -21 11 -70 25 -106 29
-172 57 -205 87 l-24 22 14 -22z"/>
<path d="M332 820 c-6 -11 -12 -38 -12 -60 0 -52 20 -63 89 -50 93 17 108 38
76 100 -15 29 -35 40 -35 21 0 -11 -17 -17 -74 -27 -36 -6 -38 -5 -31 15 8 26
3 27 -13 1z m141 -81 c-5 -5 -37 -12 -69 -14 -48 -4 -52 -3 -21 4 20 4 40 11
44 14 3 4 18 7 32 7 17 0 22 -3 14 -11z"/>
<path d="M658 818 c-10 -10 -14 -18 -9 -18 10 0 36 29 30 34 -2 1 -12 -6 -21
-16z"/>
<path d="M1555 766 c-28 -29 -73 -67 -100 -84 -28 -18 -46 -32 -42 -32 24 0
128 81 167 130 43 54 35 50 -25 -14z"/>
<path d="M91 794 c0 -11 3 -14 6 -6 3 7 2 16 -1 19 -3 4 -6 -2 -5 -13z"/>
<path d="M580 780 c8 -5 20 -10 25 -10 6 0 3 5 -5 10 -8 5 -19 10 -25 10 -5 0
-3 -5 5 -10z"/>
<path d="M685 780 c-3 -6 1 -7 9 -4 18 7 22 -11 6 -21 -6 -4 -8 -15 -5 -26 4
-10 2 -19 -4 -19 -6 0 -19 -9 -29 -21 l-20 -20 -21 34 c-12 19 -29 41 -39 48
-15 12 -16 12 -5 -2 11 -13 8 -29 -12 -87 -14 -40 -25 -78 -25 -86 0 -8 -17
-24 -37 -36 -21 -12 -42 -28 -46 -36 -7 -12 -11 -12 -29 0 -15 11 -26 12 -39
5 -35 -18 -65 0 -98 59 -28 53 -31 55 -31 27 -1 -44 -44 -161 -76 -203 -16
-20 -21 -31 -12 -24 13 10 22 9 49 -7 19 -10 50 -22 69 -26 60 -11 69 -15 72
-33 2 -9 -6 -24 -17 -34 -31 -25 -29 -113 4 -139 13 -10 32 -19 43 -19 11 0
28 -10 38 -22 l19 -23 17 43 c9 23 21 42 25 42 5 0 20 -22 34 -50 14 -27 29
-50 33 -50 5 0 13 -12 20 -27 10 -25 11 -25 7 -4 -3 17 -1 21 7 13 6 -6 17 -8
26 -4 11 4 14 1 9 -11 -4 -10 -2 -17 5 -17 6 0 8 11 4 30 -4 25 1 39 29 76 41
53 42 59 13 82 -46 37 -58 53 -58 77 0 14 -7 28 -15 31 -23 9 -18 31 19 71 45
51 116 153 116 168 0 7 -14 15 -31 19 -18 3 -50 25 -75 50 -37 36 -44 50 -44
82 l0 38 51 -57 c47 -52 79 -72 79 -47 0 6 -3 9 -7 8 -15 -4 -53 23 -53 38 0
8 11 20 25 26 15 7 25 20 25 32 0 12 3 31 6 44 5 16 2 22 -9 22 -9 0 -19 -4
-22 -10z m-218 -346 c-3 -3 -12 -4 -19 -1 -8 3 -5 6 6 6 11 1 17 -2 13 -5z
m61 -111 c-10 -2 -26 -2 -35 0 -10 3 -2 5 17 5 19 0 27 -2 18 -5z"/>
<path d="M1071 764 c0 -11 3 -14 6 -6 3 7 2 16 -1 19 -3 4 -6 -2 -5 -13z"/>
<path d="M120 759 c0 -5 4 -8 9 -5 5 3 23 -10 41 -31 23 -26 34 -32 40 -23 4
7 13 9 20 5 9 -5 11 -4 6 4 -4 6 -15 9 -25 6 -11 -3 -28 6 -46 25 -30 31 -45
38 -45 19z"/>
<path d="M3760 639 c-192 -107 -239 -139 -117 -78 97 49 337 180 337 185 0 13
-45 -9 -220 -107z"/>
<path d="M97 717 c-15 -15 -16 -21 -6 -33 10 -13 10 -17 -2 -24 -12 -8 -12
-11 0 -22 9 -8 12 -9 7 -1 -3 6 2 17 11 23 13 8 14 13 6 16 -21 9 -15 34 7 34
11 0 20 5 20 11 0 5 -4 8 -9 5 -5 -4 -11 -3 -13 2 -1 4 -11 -1 -21 -11z"/>
<path d="M1085 725 c9 -31 46 -81 69 -95 14 -8 10 0 -10 21 -18 19 -39 48 -48
64 -10 17 -14 21 -11 10z"/>
<path d="M220 665 c1 -26 2 -28 11 -12 8 14 8 22 0 30 -8 8 -11 3 -11 -18z"/>
<path d="M110 610 c0 -11 5 -20 11 -20 7 0 10 -15 7 -40 -2 -22 0 -36 3 -32 4
4 9 20 11 37 2 18 10 31 20 33 27 5 31 -33 9 -79 -31 -63 -18 -58 15 6 23 45
26 57 15 64 -9 6 -11 16 -6 32 7 22 7 22 -9 6 -22 -22 -71 -23 -62 -2 3 8 1
15 -4 15 -6 0 -10 -9 -10 -20z"/>
<path d="M1233 603 c15 -2 37 -2 50 0 12 2 0 4 -28 4 -27 0 -38 -2 -22 -4z"/>
<path d="M1730 490 c0 -5 -3 -9 -7 -8 -11 3 -73 -25 -73 -33 0 -12 89 23 94
37 3 8 1 14 -4 14 -6 0 -10 -4 -10 -10z"/>
<path d="M4632 471 c-27 -37 -27 -91 1 -91 12 0 17 5 14 14 -9 22 13 38 32 24
9 -7 13 -9 9 -4 -9 10 7 26 46 46 21 11 25 16 13 18 -10 2 -29 -6 -44 -17 -31
-25 -44 -19 -18 9 11 12 13 20 6 20 -6 0 -17 -11 -23 -25 -6 -14 -15 -25 -20
-25 -11 0 -10 7 3 32 17 31 5 31 -19 -1z"/>
<path d="M4597 466 c-9 -13 -19 -35 -22 -49 -6 -22 -4 -25 13 -20 12 3 18 11
15 19 -3 7 0 27 5 44 13 36 10 38 -11 6z"/>
<path d="M3835 435 c-153 -75 -263 -125 -323 -147 -55 -20 -87 -38 -66 -38 5
0 34 9 64 21 54 21 70 27 245 109 50 23 114 51 143 62 28 11 52 24 52 29 0 16
-23 9 -115 -36z"/>
<path d="M1508 463 c7 -3 16 -2 19 1 4 3 -2 6 -13 5 -11 0 -14 -3 -6 -6z"/>
<path d="M3633 396 c-73 -35 -149 -70 -170 -79 l-38 -17 34 5 c37 5 345 153
321 154 -8 0 -74 -28 -147 -63z"/>
<path d="M1601 428 c22 -41 0 -177 -34 -210 -14 -13 -16 -19 -7 -16 24 7 50
71 57 142 3 39 10 66 17 65 6 -1 20 -1 31 0 17 1 17 3 5 11 -8 5 -26 7 -40 4
-23 -5 -24 -4 -7 9 17 14 17 15 -7 13 -19 -1 -22 -4 -15 -18z"/>
<path d="M4733 443 c-17 -6 -16 -20 1 -26 8 -3 16 2 19 14 5 19 2 21 -20 12z"/>
<path d="M4780 440 c0 -5 5 -10 11 -10 5 0 7 5 4 10 -3 6 -8 10 -11 10 -2 0
-4 -4 -4 -10z"/>
<path d="M1342 418 c-7 -7 -11 -35 -11 -62 l2 -51 6 50 c4 28 10 56 14 63 10
15 5 16 -11 0z"/>
<path d="M1720 415 l-35 -13 32 1 c18 0 34 6 37 14 3 7 4 13 3 12 -1 0 -18 -6
-37 -14z"/>
<path d="M1630 372 c0 -13 47 -28 57 -18 4 3 -3 6 -13 6 -11 0 -25 5 -32 12
-9 9 -12 9 -12 0z"/>
<path d="M3016 363 c-6 -14 -5 -15 5 -6 7 7 10 15 7 18 -3 3 -9 -2 -12 -12z"/>
<path d="M4675 371 c-3 -5 -1 -12 5 -16 5 -3 10 1 10 9 0 18 -6 21 -15 7z"/>
<path d="M2992 323 c-17 -30 -15 -37 4 -19 8 9 14 22 11 29 -2 7 -8 4 -15 -10z"/>
<path d="M3755 330 c-3 -5 1 -10 9 -10 9 0 16 5 16 10 0 6 -4 10 -9 10 -6 0
-13 -4 -16 -10z"/>
<path d="M2952 300 c0 -14 2 -19 5 -12 2 6 2 18 0 25 -3 6 -5 1 -5 -13z"/>
<path d="M3715 310 c-3 -6 1 -7 9 -4 18 7 21 14 7 14 -6 0 -13 -4 -16 -10z"/>
<path d="M1341 290 c0 -8 4 -22 9 -30 12 -18 12 -2 0 25 -6 13 -9 15 -9 5z"/>
<path d="M2991 277 c-13 -21 -12 -21 5 -5 10 10 16 20 13 22 -3 3 -11 -5 -18
-17z"/>
<path d="M3670 290 c0 -5 5 -10 10 -10 6 0 10 5 10 10 0 6 -4 10 -10 10 -5 0
-10 -4 -10 -10z"/>
<path d="M4372 258 c3 -7 13 -15 24 -17 16 -3 17 -1 5 13 -16 19 -34 21 -29 4z"/>
<path d="M1428 206 c-10 -7 -15 -16 -11 -19 10 -10 96 -8 113 3 9 6 -6 7 -45
3 -70 -7 -69 5 2 17 l48 8 -45 1 c-25 0 -53 -6 -62 -13z"/>
<path d="M3650 173 c0 -13 5 -23 10 -23 13 0 13 11 0 30 -8 12 -10 11 -10 -7z"/>
<path d="M4117 183 c-4 -3 -7 -11 -7 -17 0 -6 5 -5 12 2 6 6 9 14 7 17 -3 3
-9 2 -12 -2z"/>
<path d="M3391 154 c0 -11 3 -14 6 -6 3 7 2 16 -1 19 -3 4 -6 -2 -5 -13z"/>
<path d="M1956 134 c-16 -16 -51 -122 -43 -130 2 -2 73 -3 158 -2 l153 3 -89
61 c-72 49 -139 84 -161 84 -1 0 -10 -7 -18 -16z"/>
<path d="M3345 80 c-3 -5 -1 -18 4 -27 9 -15 10 -14 9 10 -3 30 -4 32 -13 17z"/>
<path d="M2989 53 c-13 -16 -12 -17 4 -4 16 13 21 21 13 21 -2 0 -10 -8 -17
-17z"/>
<path d="M3280 20 c0 -5 5 -10 10 -10 6 0 10 5 10 10 0 6 -4 10 -10 10 -5 0
-10 -4 -10 -10z"/>
</g>
</svg>
